<svg xmlns="http://www.w3.org/2000/svg" viewBox="0 0 6724 2825.87"><defs><style>.cls-1{font-size:1156px;fill:#051d40;font-family:Roboto-Bold, Roboto;font-weight:700;}.cls-2{letter-spacing:0.01em;}.cls-3{letter-spacing:-0.06em;}.cls-4{fill:#cf1a83;}.cls-5{fill:#d01a83;}.cls-6{fill:#d01b83;}.cls-7{fill:#c32129;}.cls-8{fill:#a22a6a;}.cls-9{fill:#94131c;}.cls-10{fill:#a32a6a;}.cls-11{fill:#cf1b83;}.cls-12{fill:#c3222a;}.cls-13{fill:#a32b6a;}.cls-14{fill:#94141d;}.cls-15{fill:#a32b6b;}.cls-16{fill:#d11c83;}.cls-17{fill:#c4222a;}.cls-18{fill:#94141c;}.cls-19{fill:#c4232b;}.cls-20{fill:#d01d84;}.cls-21{fill:#d11d84;}.cls-22{fill:#a32c6b;}.cls-23{fill:#94151e;}.cls-24{fill:#d11c84;}.cls-25{fill:#a42e6c;}.cls-26{fill:#a42d6c;}.cls-27{fill:#d01e84;}.cls-28{fill:#d01c84;}.cls-29{fill:#c4242b;}.cls-30{fill:#d01c83;}.cls-31{fill:#a42d6b;}.cls-32{fill:#d11f85;}.cls-33{fill:#d11e85;}.cls-34{fill:#d12387;}</style></defs><title>Donate</title><g id="Layer_2" data-name="Layer 2"><g id="Layer_1-2" data-name="Layer 1"><text class="cls-1" transform="translate(0 1987.01)">DO<tspan class="cls-2" x="1549.42" y="0">N</tspan><tspan class="cls-3" x="2375.78" y="0">A</tspan><tspan x="3085.87" y="0">TE</tspan></text><path class="cls-4" d="M2992.06,560.69c13.67-33.26,32.36-61.83,68.24-75,53-19.47,112.17,6.19,133.85,58.3a104.75,104.75,0,0,1-53.34,135.59c-51.16,23.45-112,2-137.82-48.25-3.65-7.08-3.62-16.11-10.93-21.28Z"/><path class="cls-5" d="M5158.56,0c35.57,19.15,49.91,42.49,43.89,71.47-5.55,26.71-29.53,47.29-56.8,48.75-26.1,1.4-50.95-16.14-59.4-41.93-8.75-26.7,1.44-54.39,25.72-69.57,4.94-3.09,10.12-5.82,15.19-8.72Z"/><path class="cls-5" d="M4310.8,2825.87c-14.92-10.6-31.17-19.7-36-39.76-6.92-28.51,7.68-57.76,34.18-67,26.68-9.25,55.91,2.48,68.23,27.37,12.85,25.95,3.87,55.86-21.61,71.75-4.34,2.71-8.9,5.07-13.36,7.59Z"/><path class="cls-6" d="M6724,1099c-10.77,10.59-19.44,23.74-37.41,23.93-20.37.22-36.71-10.34-41.37-29.88-4.73-19.84,2.94-35.08,20.39-44.82,16.41-9.16,38.21-4,50,10.91,3.17,4,5.64,8.62,8.43,13Z"/><path class="cls-7" d="M4967.35,2341.54c-54.7-.25-99.67-45.34-99.72-100s44.73-99.17,100.07-99.5c56-.33,101.53,45.28,100.74,100.95C5067.66,2297.67,5022.39,2341.79,4967.35,2341.54Z"/><path class="cls-8" d="M3661.65,234.19c-55.42-.28-99.69-44.54-99.59-99.58.1-55.7,45.65-100,102.21-99.3,54.75.64,99.52,46.41,98.58,100.8C3761.9,191.25,3717.31,234.46,3661.65,234.19Z"/><path class="cls-7" d="M4837.83,543.85c-52.92-.07-96-43.16-95.27-95.3.73-51.69,43-93.75,94.54-94.15,52.66-.41,96.15,42.23,96.39,94.53S4890.78,543.92,4837.83,543.85Z"/><path class="cls-7" d="M4813.12,194.11c.29,52.59-42.36,95.5-95.1,95.69-52.58.2-95.09-42.68-94.8-95.63a95.11,95.11,0,0,1,93.65-94.72C4768.93,98.6,4812.84,141.78,4813.12,194.11Z"/><path class="cls-8" d="M5392.85,398.23c.45,50.31-38.18,90.25-87.92,90.9-50.89.65-92-39.39-92.05-89.66,0-49.07,40.44-89.66,89.72-90C5352.55,309.22,5392.4,348.39,5392.85,398.23Z"/><path class="cls-8" d="M5113,329.15c-50.3-.11-89.41-39.09-89.52-89.22-.11-50.6,41.14-91.61,91.08-90.56,49.23,1,89.15,41.94,88.81,91C5203,289.79,5162.81,329.26,5113,329.15Z"/><path class="cls-8" d="M5904.1,978.27c-47.39.21-85.82-37.7-85.83-84.65,0-46.56,39.42-85.69,85.87-85.24,46.11.46,83.92,38.2,84.35,84.21C5988.94,940.34,5951.79,978.06,5904.1,978.27Z"/><path class="cls-7" d="M3847.9,260.45c-.35-47.91,36.72-85.53,84.39-85.63,47.19-.11,86,38.48,85.68,85.08-.36,46-38,84-84,84.93C3887,345.76,3848.25,307.75,3847.9,260.45Z"/><path class="cls-7" d="M5423.33,2356.16c-47.76,0-85.46-37.62-85.19-85s38.72-84.73,86.29-84.1c46.78.61,83.72,37.61,84,84.08C5508.65,2318.69,5471.19,2356.14,5423.33,2356.16Z"/><path class="cls-7" d="M3247.44,908.93c-.17,47-39,85.21-86.1,84.64a84.62,84.62,0,0,1-84.15-86.27c.56-46.55,37.62-82.93,84.65-83.11C3209.54,824,3247.61,861.7,3247.44,908.93Z"/><path class="cls-4" d="M3292.39,308.7c.32-47,39.26-85,86.31-84.22,45.9.73,83.75,39,83.92,84.78.17,46.67-38.74,85.45-85.6,85.31A85,85,0,0,1,3292.39,308.7Z"/><path class="cls-7" d="M3943.13,384.82c47.54.22,85.41,38.5,84.73,85.65-.67,46-38.44,83.4-84.75,83.95-46.89.57-85.46-37.84-85.47-85.11C3857.62,421.67,3895.14,384.59,3943.13,384.82Z"/><path class="cls-4" d="M3571.82,259.88c48.07-.18,85.17,36.72,85.12,84.67,0,47.26-38.34,85.57-85.26,85.27-45.55-.28-84-38.52-84.76-84.23C3486.17,298.92,3524.67,260.05,3571.82,259.88Z"/><path class="cls-7" d="M5392.91,583.73c.18,47.92-36.89,85.1-84.81,85-47.31-.06-85.73-38.54-85.22-85.36.5-45.79,38.38-83.75,84.37-84.55C5353.92,498.06,5392.73,536.5,5392.91,583.73Z"/><path class="cls-7" d="M5613.48,1732.1c-47.49,0-85.78-38.13-85.33-85s39.81-85.49,86.29-84.74a85,85,0,0,1,83.62,84.6C5698.35,1694.93,5661.44,1732.08,5613.48,1732.1Z"/><path class="cls-8" d="M5873.17,1353.33c-.14,47.19-38.82,85.57-85.53,84.85-46.23-.72-83.87-38.34-84.34-84.3-.48-47.1,37.46-85.23,84.93-85.35C5836.28,1268.4,5873.31,1305.38,5873.17,1353.33Z"/><path class="cls-7" d="M4432.5,504.8c-.2,47.72-37.79,84.46-85.86,83.94-46.42-.5-83.88-37.77-84.38-83.93-.49-46.48,38.53-85.51,85.45-85.45C4395.28,419.42,4432.71,457.14,4432.5,504.8Z"/><path class="cls-8" d="M3762.9,2524.84c-.39-46.12,35.32-83.06,81.06-83.84,44.84-.76,83,36.47,83.86,81.73.82,44.91-36.49,83-81.76,83.41C3799.92,2606.59,3763.3,2570.79,3762.9,2524.84Z"/><path class="cls-9" d="M5768.56,933.48a80,80,0,0,1-79.37,80.16c-44.67.36-81.87-36.75-81.17-80.94.68-43.46,37.58-79.68,80.85-79.37C5732.58,853.64,5768.5,889.76,5768.56,933.48Z"/><path class="cls-8" d="M5162.41,2431.28c-44.05-.29-79.78-36.16-79.59-79.9.19-44.3,38.11-81.18,82.27-80,43.66,1.15,79.17,38.11,78.37,81.56C5242.65,2396.84,5206.72,2431.58,5162.41,2431.28Z"/><path class="cls-7" d="M5763.77,402.52c.72-43.81,37.55-79.42,81.08-78.4,43.77,1,79.43,37.63,79,81.05-.47,44.66-37.85,80.44-82.71,79.19C5797.12,483.13,5763,447.06,5763.77,402.52Z"/><path class="cls-8" d="M5443,2081.89a74.83,74.83,0,0,1-75.23,75.28c-41.24-.25-75.07-34.83-74.58-76.23.47-40.4,34-73.83,74.43-74.2A74.72,74.72,0,0,1,5443,2081.89Z"/><path class="cls-8" d="M3628.9,2224.9a71.7,71.7,0,1,1-70.51-71.76A71.83,71.83,0,0,1,3628.9,2224.9Z"/><path class="cls-4" d="M3384.87,548.9c36.43.09,67.34,30.45,67.85,66.61.52,37.41-30.31,68.44-68,68.43a67,67,0,0,1-67.43-68.54C3318.05,578.45,3348.18,548.81,3384.87,548.9Z"/><path class="cls-4" d="M3207.31,369.55c0,35.76-30.09,65.55-65.79,65.16a65.15,65.15,0,0,1-64.32-66.39,64.36,64.36,0,0,1,64.44-63.57C3178.09,304.55,3207.31,333.38,3207.31,369.55Z"/><path class="cls-7" d="M5867.84,1552.43c-36.8-.31-64.62-29.09-64-66.18a64.52,64.52,0,0,1,64-63.71c35.52-.41,66.05,29.73,66.11,65.28C5934.05,1523.81,5904.44,1552.74,5867.84,1552.43Z"/><path class="cls-10" d="M3822.23,299.33c.07,36.8-28.23,64.89-65.21,64.73-36.31-.15-65.45-29.57-64.88-65.5.54-34.67,29.83-63.84,64.57-64.31C3792.7,233.77,3822.16,263,3822.23,299.33Z"/><path class="cls-4" d="M3567.88,578.91c-36.79.2-65.2-28.07-65.13-64.83a64.78,64.78,0,0,1,63.1-65.05c35.49-.85,66.32,28.71,67,64.19C3633.43,549.1,3604.17,578.71,3567.88,578.91Z"/><path class="cls-10" d="M4032.62,410.05a59.26,59.26,0,0,1,58.77-60.38c34-.54,61.9,26.74,61.66,60.21-.23,32.31-27.76,59.63-60.32,59.86C4060.49,470,4033,442.62,4032.62,410.05Z"/><path class="cls-10" d="M4687.78,470.09a59.43,59.43,0,0,1-60.08,59.17c-32.59-.08-59.94-27.15-60.22-59.61-.29-33,28.79-61.61,61.73-60.65A60.42,60.42,0,0,1,4687.78,470.09Z"/><path class="cls-7" d="M5312.45,1777c-33.37-.34-59.6-26.72-59.44-59.78a60.2,60.2,0,0,1,60-59.67c33.8-.16,61.39,27.77,60.55,61.32C5372.7,1752,5346,1777.35,5312.45,1777Z"/><path class="cls-5" d="M5149.11,484.36c33.22.39,59.14,26.86,59,60.19-.17,32.66-27.21,59.82-59.73,60-33.08.18-61.74-29-60.61-61.8S5116.29,484,5149.11,484.36Z"/><path class="cls-9" d="M5683.39,1204.28a59.46,59.46,0,0,1,58.49-60.74c34.15-.69,62.1,26.24,62,59.77-.08,32.43-27.39,59.88-59.92,60.21S5683.91,1236.84,5683.39,1204.28Z"/><path class="cls-4" d="M4597.88,208.83c.38,33.33-25.41,60-58.58,60.55-34.23.58-62.11-26.43-61.88-59.93.21-32.37,27.76-59.91,60.09-60.08S4597.52,176.33,4597.88,208.83Z"/><path class="cls-7" d="M5503.6,1887.38c0,32.76-26.82,59.43-59.85,59.61-34.05.18-61.38-27.29-60.7-61,.65-32.4,28.63-59.46,61-59C5476.63,1827.48,5503.64,1854.86,5503.6,1887.38Z"/><path class="cls-10" d="M4926.93,144.4c-33.22-.5-59.66-27.29-59.28-60.06.39-33.85,28.13-59.93,62.64-58.89,33.26,1,58.63,27.84,57.79,61.13C4987.25,119.63,4960.53,144.9,4926.93,144.4Z"/><path class="cls-5" d="M3755.67,543.72c-33.16-.71-59.44-27.88-58.64-60.61.81-33,27.55-58.57,61-58.27,34.38.31,60.5,27.49,59.35,61.77C3816.31,519.62,3789.46,544.46,3755.67,543.72Z"/><path class="cls-7" d="M5073.22,414.2a59.76,59.76,0,0,1,59.59-59.8c32.6-.2,60.16,26.58,60.8,59.07.66,33-28,61.72-61.16,61.21C5099.78,474.18,5073.14,447,5073.22,414.2Z"/><path class="cls-4" d="M4503.18,354.8c-.22,33-26.75,59.07-60.12,59.16-34.37.09-61.16-27-60.38-60.95.76-33,27.45-58.4,61-58C4477,295.38,4503.4,321.9,4503.18,354.8Z"/><path class="cls-5" d="M5317.77,44.88a60,60,0,0,1,60.54,58.9c.57,33.38-27.51,61.81-60.67,61.42-32.26-.38-59.91-28.28-59.83-60.38C5257.9,72.48,5285.26,45.13,5317.77,44.88Z"/><path class="cls-9" d="M4401.22,718.57a59.44,59.44,0,0,1-58.69-60.52c.6-33,27.38-58.85,60.72-58.63,34.11.22,61.05,28.06,59.79,61.77C4461.8,694.23,4434.86,719.23,4401.22,718.57Z"/><path class="cls-10" d="M4212.43,585.09c-.42,32.74-27.61,59.54-60.22,59.34-32.25-.19-59.81-27.8-60-60.11-.19-33.19,28-60.44,62-59.81C4187.48,525.12,4212.86,551.52,4212.43,585.09Z"/><path class="cls-8" d="M4890.88,274.21c-32.68-.86-59.38-28.88-58.21-61.11A60.75,60.75,0,0,1,4894,154.71c33.84.52,59.81,28.27,58.65,62.67C4951.57,250.5,4924.82,275.09,4890.88,274.21Z"/><path class="cls-11" d="M4557.67,334.58c-.06-30.2,25.59-55.75,55.7-55.48,29,.27,54.11,25,54.91,54.22.81,29.94-24.42,56-54.76,56.45C4583.45,390.26,4557.73,364.84,4557.67,334.58Z"/><path class="cls-11" d="M5967.45,569.41c-30.24-.64-55.4-27-54.29-56.84,1.08-29.13,26.5-53.73,55.47-53.67,30.22.05,55.54,25.67,55.28,55.94S5997.71,570.05,5967.45,569.41Z"/><path class="cls-6" d="M4202.94,2666.26c-.06,30.14-26.1,55.82-56,55.16-30.23-.66-55.52-26.8-54.78-56.6.72-29.26,25.55-53.58,55.05-53.92C4177.38,2610.55,4203,2636,4202.94,2666.26Z"/><path class="cls-5" d="M4438.58,2476.17c30.3.41,55.44,26.36,54.64,56.4-.77,29-26.25,54-55.1,54-30.35.08-55.61-25.22-55.46-55.52S4408.29,2475.76,4438.58,2476.17Z"/><path class="cls-10" d="M5423.25,1163.05c.15-30.33,25.61-55.34,55.9-54.91s55.3,26.3,54.48,56.47c-.78,29.1-26,53.89-55,54C5448.3,1218.73,5423.1,1193.45,5423.25,1163.05Z"/><path class="cls-5" d="M4117.76,2562.26c-.56,30.63-25.47,54.11-56.71,53.45-29.7-.62-53.79-24.92-53.88-54.35-.1-30.21,25.06-54.79,55.89-54.61S4118.32,2531.64,4117.76,2562.26Z"/><path class="cls-5" d="M4822.66,2420.36c.47,31.34-23,55.55-54,55.83-31.29.28-55.14-23.33-55.2-54.64-.05-30.63,22.41-53.8,52.87-54.54C4797.93,2366.24,4822.19,2389.2,4822.66,2420.36Z"/><path class="cls-4" d="M6213.3,569.89c-.31,31.21-24.39,54.46-55.84,53.91-31.11-.54-54.09-24.85-53.33-56.42.73-30.32,24-52.72,54.7-52.65C6190.36,514.79,6213.62,538.35,6213.3,569.89Z"/><path class="cls-5" d="M4612.43,2416.92c-.2,31.12-24.64,55.13-55.53,54.54-30.74-.58-54.33-25.42-53.67-56.49a54.42,54.42,0,0,1,54.47-53.55C4588.41,2361.37,4612.63,2385.93,4612.43,2416.92Z"/><path class="cls-10" d="M4262.46,2655.83a54.5,54.5,0,0,1-54.8-55.42c.37-30.85,24.94-54.26,56.37-53.7A54.68,54.68,0,0,1,4318,2600.9C4318.2,2631.37,4293.41,2655.91,4262.46,2655.83Z"/><path class="cls-5" d="M4718.79,2626a54.86,54.86,0,1,1,54.09-56.16C4773.61,2600.84,4749.89,2625.47,4718.79,2626Z"/><path class="cls-10" d="M5508.39,899.76c-.53,30.34-26.57,55.25-56.65,54.2-29.22-1-53.78-26.29-53.73-55.27.05-30.22,25.57-55.41,55.86-55.15S5508.92,869.35,5508.39,899.76Z"/><path class="cls-5" d="M4407,2705.62c-30.57-.32-55.63-25.91-54.68-55.84a55.24,55.24,0,0,1,55.09-53.24c30.79-.12,55.72,24.44,55.59,54.77C4462.91,2681.86,4438.07,2706,4407,2705.62Z"/><path class="cls-5" d="M3843.05,2353.29a54.47,54.47,0,0,1,56.1-51.89c31.21.94,55.15,27.81,53,59.51-2,29.27-28.34,52.7-57.29,50.86C3864.16,2409.82,3841.52,2384.29,3843.05,2353.29Z"/><path class="cls-5" d="M6049.16,1342.6c-31.11.23-55.89-24-55.86-54.57,0-30.2,25.37-55,55.95-54.69a55.44,55.44,0,0,1,54.84,53.65C6105,1316.79,6079.74,1342.38,6049.16,1342.6Z"/><path class="cls-7" d="M5698.07,778.86c0,31-24.51,55.47-55.19,55.15-30.47-.32-54.67-25.45-54.17-56.24a55,55,0,0,1,54.13-54.18C5673.17,723.22,5698.09,748.16,5698.07,778.86Z"/><path class="cls-10" d="M3271.19,808.35c-30.65-.42-55.31-25.87-54.33-56.05s26.54-53.87,57.46-53c29.49.85,53.5,25.62,53.33,55C3327.47,784.45,3302.05,808.78,3271.19,808.35Z"/><path class="cls-10" d="M6263.32,874c-.16,31.21-24.27,54.94-55.42,54.55-30.71-.39-54.51-25.16-53.92-56.15.57-30.2,23.92-53,54.39-53.2C6239.76,819.05,6263.48,842.7,6263.32,874Z"/><path class="cls-12" d="M5575.41,1477.63c-29.26-.3-52.89-24.06-52.46-52.74.42-28.51,24.95-52.43,53.45-52.12s52.71,24.77,52.36,53.11A52.53,52.53,0,0,1,5575.41,1477.63Z"/><path class="cls-6" d="M4967.52,2570.84c-27.77-.24-49.87-22.19-49.88-49.55,0-26.9,22.72-49.62,49.91-49.87,28.25-.26,51.78,23.27,51,51C5017.72,2549.9,4995.41,2571.08,4967.52,2570.84Z"/><path class="cls-10" d="M5003.86,404.13c-27.7.38-50.26-20.93-51.11-48.28-.87-28,22.08-51.2,50.61-51.11a49.62,49.62,0,0,1,49.83,49.47C5053.34,381.82,5031.67,403.75,5003.86,404.13Z"/><path class="cls-10" d="M5553.58,1218.66c28.16.07,49.35,21.13,49.5,49.2a49.83,49.83,0,0,1-48.78,50.5c-28.13.59-51-22.36-50.67-50.87C5503.94,1239.57,5525.41,1218.59,5553.58,1218.66Z"/><path class="cls-13" d="M5263.34,2192.25c28.31,0,49.39,20.93,49.57,49.13a49.91,49.91,0,0,1-48.85,50.49c-27.85.54-51.63-23.07-51.17-50.82C5213.33,2213.77,5235.63,2192.21,5263.34,2192.25Z"/><path class="cls-7" d="M6033.45,1809.46c-1,27.4-23.55,48.37-51.34,47.68-28.5-.71-49.54-23.89-48.08-53,1.39-27.56,23.89-47.54,52.24-46.37C6013.78,1759,6034.45,1781.57,6033.45,1809.46Z"/><path class="cls-7" d="M5693,1807.54c-.08,27.94-21.42,49.43-49.24,49.59-28.64.17-50.89-22.42-50.28-51,.6-27.59,22.61-48.61,50.6-48.32S5693.13,1779.42,5693,1807.54Z"/><path class="cls-13" d="M5133.42,2057.39c28.19.11,49.32,21.2,49.42,49.34a50.11,50.11,0,0,1-49,50.43c-27.71.5-51.48-23.27-51-51C5083.26,2079,5105.8,2057.28,5133.42,2057.39Z"/><path class="cls-10" d="M3642.42,2371.61c-.08-27.48,21.68-49.29,49.44-49.57,28.27-.29,49.73,20.45,50.17,48.48.45,28.66-22,51.6-50.22,51.24A50.32,50.32,0,0,1,3642.42,2371.61Z"/><path class="cls-13" d="M6264,1393.31c27.63.1,50,22.17,50.06,49.34.06,26.81-22.72,50-49.53,50.49-27.57.48-51.7-23.55-51.23-51C6213.79,1415.09,6236.51,1393.21,6264,1393.31Z"/><path class="cls-13" d="M5328.57,250c-.18-25.82,19-45,45-44.85,25.59.1,45.36,20,44.93,45.3-.4,23.59-20.63,43.94-44.27,44.51C5349.63,295.58,5328.76,275,5328.57,250Z"/><path class="cls-14" d="M5522.33,739.31c26-.51,45.48,18.36,45.67,44.19.2,25.45-19.75,45.8-44.8,45.69-23.62-.1-44.2-20-45.21-43.74C5476.93,760.75,5497.06,739.8,5522.33,739.31Z"/><path class="cls-10" d="M5733.15,1079.29c-.41,25.51-20.4,44.36-46.23,43.6-24.53-.72-43.65-20.1-43.72-44.31-.08-24.56,20.94-45.51,45.58-45.44S5733.55,1054.24,5733.15,1079.29Z"/><path class="cls-6" d="M4761.48,2686.37c23.59.44,42.51,19.87,42,43.09-.54,22.59-21.34,42.46-43.82,41.85-23.54-.63-41.66-19.79-41.25-43.63S4737.42,2685.92,4761.48,2686.37Z"/><path class="cls-6" d="M4532.79,2743.69c-.17,23.75-18.82,42.12-42.66,42s-42-18.56-41.91-42.51c.12-23.47,19.26-42.63,42.39-42.45S4533,2720.55,4532.79,2743.69Z"/><path class="cls-6" d="M5812.69,579a40.43,40.43,0,0,1,40.91,38.7c.77,21.61-16.48,40.33-38.15,41.41a40.42,40.42,0,0,1-42.08-39.75C5773.2,597.76,5791,579.47,5812.69,579Z"/><path class="cls-15" d="M5808.66,1592.14c.3,21.63-17.32,39.88-39.08,40.47a40.3,40.3,0,0,1-41.16-38.33c-.94-22.47,17.63-41.79,40.13-41.77C5790.18,1552.53,5808.35,1570.49,5808.66,1592.14Z"/><path class="cls-6" d="M4543.16,489.27c0,21.55-18,39.61-39.69,39.92a39.68,39.68,0,0,1-40.36-41.06c.55-21.79,18.85-39.48,40.36-39C4525.14,449.57,4543.18,467.83,4543.16,489.27Z"/><path class="cls-6" d="M5472.94,1423.22c-.1,22.35-17.07,39.28-39.44,39.33-22,0-40-17.18-40.56-38.89s19.43-41.65,41.21-41A40.07,40.07,0,0,1,5472.94,1423.22Z"/><path class="cls-6" d="M6068.78,784.13c-21.65,0-39.69-17.76-40-39.52a39.7,39.7,0,0,1,41-40.44c21.82.52,39.58,18.77,39.19,40.26C6108.52,766.08,6090.32,784.09,6068.78,784.13Z"/><path class="cls-11" d="M6383.45,629.09c0,22.37-16.82,39.4-39.18,39.59a40.09,40.09,0,0,1-40.81-38.59c-.74-21.78,19-41.74,40.89-41.3A40,40,0,0,1,6383.45,629.09Z"/><path class="cls-13" d="M5344.4,1877.18A40.47,40.47,0,0,1,5303,1839c-1.11-21.35,16.24-40.08,38-41,23.8-1.06,41.73,15.5,42,38.79C5383.33,1859,5366.49,1876.64,5344.4,1877.18Z"/><path class="cls-16" d="M6212.71,1767.28c-21.87-.51-39.54-18.6-39.3-40.23.26-22.06,20.4-41,42.34-39.78,21.63,1.19,38.3,19.67,37.64,41.71S6234.93,1767.8,6212.71,1767.28Z"/><path class="cls-13" d="M5393.72,843.5c-22.2.18-40-16.74-40.6-38.68-.65-22.13,18.75-41.76,40.81-41.28,21.74.48,38.93,18.34,38.9,40.41C5432.8,826.57,5416.24,843.32,5393.72,843.5Z"/><path class="cls-15" d="M5503.56,1024.26c-.41,21.63-18.52,39.07-40.45,39a39.75,39.75,0,0,1-39.8-39.46c-.14-22.58,19.08-41.38,41.41-40.49C5486.4,984.12,5504,1002.66,5503.56,1024.26Z"/><path class="cls-15" d="M5983.67,1067.58a39.81,39.81,0,0,1-38.73,40.53c-22,.66-40.46-16.18-41.48-37.83-1.05-22.38,17.48-41.93,39.9-42.09C5964.9,1028,5983.2,1045.92,5983.67,1067.58Z"/><path class="cls-6" d="M5498.64,1323.51c-.26,21.54-18.43,39.5-40.13,39.67-22.49.18-40.75-18.86-39.94-41.66a39.92,39.92,0,0,1,40.83-38.45C5481.11,1283.65,5498.91,1302,5498.64,1323.51Z"/><path class="cls-6" d="M6163.77,1023.28a40,40,0,1,1-1.31,80.07c-21.76-.67-39.5-19.13-39-40.58C6124,1041,6142.18,1023.2,6163.77,1023.28Z"/><path class="cls-6" d="M5687.72,2001.77c21.64-.46,39.91,17.07,40.55,38.91.66,22.27-15.9,40.1-38,40.92-23,.84-42.14-17.13-42.13-39.48C5648.16,2020.83,5666.41,2002.21,5687.72,2001.77Z"/><path class="cls-17" d="M5988.47,648.42a40,40,0,0,1-38.65,40.78c-22.22.72-41.76-18.35-41.55-40.54.2-21.6,18.12-39,40.2-39.12C5970.91,609.45,5988.13,626.19,5988.47,648.42Z"/><path class="cls-15" d="M5373.46,1951.61c.36,21.61-17.23,39.67-39.13,40.16-22.13.5-40.23-16.28-41.08-38.1-.87-22.51,17.67-41.82,40.11-41.76C5354.81,1912,5373.1,1930.08,5373.46,1951.61Z"/><path class="cls-6" d="M5172.65,1888.47c-.61,22.24-19,39.82-40.76,38.93s-39.63-19.84-38.84-41.39c.83-22.27,18.77-38.91,41.35-38.35S5173.28,1865.49,5172.65,1888.47Z"/><path class="cls-6" d="M4583.23,2531.81c-.25,21.54-18.24,38.9-40.35,39-23.57,0-40.41-17.44-39.58-41.12a39.34,39.34,0,0,1,40.68-38.35C4565.56,2491.9,4583.48,2510.41,4583.23,2531.81Z"/><path class="cls-6" d="M5697.86,2201c.34,22.33-16.87,40.58-38.68,41-22,.45-39.83-17.13-40.19-39.52-.36-22.88,16.13-40.16,38.72-40.57S5697.52,2178.18,5697.86,2201Z"/><path class="cls-6" d="M5893.78,1182.08c.62,21.35-16.91,40.25-38.42,41.43-22.18,1.21-41.74-17.51-41.82-40a39.73,39.73,0,0,1,39.34-39.87C5874.82,1143.27,5893.15,1160.5,5893.78,1182.08Z"/><path class="cls-6" d="M5894.39,2001.48c-23.08.37-40.22-15.86-40.66-38.5s16.16-39.83,39-40.25c22.59-.41,40.57,16.44,41.14,38.56C5934.43,1983,5916.6,2001.12,5894.39,2001.48Z"/><path class="cls-17" d="M5267.84,1948.6c-.71,22.29-18.25,38.93-40.5,38.44-23.16-.52-39.83-18.87-38.56-42.44,1.18-21.87,19.88-38.83,41.45-37.59C5252.17,1908.27,5268.54,1926.38,5267.84,1948.6Z"/><path class="cls-15" d="M5633.53,1223.52c-21.65,0-39.6-17.73-39.94-39.55a39.48,39.48,0,0,1,38.69-40.38c22.84-.58,41.84,17.85,41.44,40.2C5673.34,1205.16,5654.81,1223.48,5633.53,1223.52Z"/><path class="cls-6" d="M4799,2256.55a40.08,40.08,0,1,1-3.11,80.1c-22-1.19-38.06-19.11-37.37-41.57C4759.24,2273,4777.18,2255.89,4799,2256.55Z"/><path class="cls-13" d="M5567.3,1058.45a39.93,39.93,0,0,1-39-40.43c.26-21.59,18.39-39.61,39.94-39.7,22.5-.1,40.33,18.73,39.59,41.8A39.08,39.08,0,0,1,5567.3,1058.45Z"/><path class="cls-6" d="M5212.7,1762.66c22.25-.22,39.75,16.62,40.26,38.74.52,22.8-17.95,41.62-40.45,41.2-21.24-.39-39.7-19.17-39.62-40.3C5173,1780.63,5190.79,1762.88,5212.7,1762.66Z"/><path class="cls-14" d="M5468.67,1657.59a40.27,40.27,0,0,1-40.54-39c-.62-22.59,17.75-40.67,41-40.36,22.33.29,39.33,17.49,39.23,39.7A39.84,39.84,0,0,1,5468.67,1657.59Z"/><path class="cls-6" d="M5767.11,1827.1a40.59,40.59,0,0,1,41.49,38.18c1.22,21.49-15.89,40.35-37.6,41.44-23.12,1.17-42.2-16.15-42.61-38.68C5728,1846.44,5745.65,1827.78,5767.11,1827.1Z"/><path class="cls-13" d="M6449.76,963.83c-21.58.59-39.76-16.86-40.39-38.75-.64-22.53,15.44-40.23,37.56-41.32A40,40,0,0,1,6489,923.34C6489.17,944.81,6471.32,963.24,6449.76,963.83Z"/><path class="cls-17" d="M4872.27,2421.68c-21.68-.48-39.45-18.69-39.36-40.32a40.09,40.09,0,0,1,41.91-39.79c22.08,1,38.3,18.72,37.72,41.22C4912,2404.8,4894,2422.17,4872.27,2421.68Z"/><path class="cls-6" d="M5868,1062.88c.25,22.46-16.24,39.82-38.42,40.47a39.87,39.87,0,0,1-41.1-40.47c.3-21.56,18.5-39.59,40-39.64S5867.76,1040.92,5868,1062.88Z"/><path class="cls-6" d="M6457.94,1522.94c22.18-.41,40.56,16.93,41.18,38.83s-17.11,39.91-39.34,40.31c-23,.42-40.27-15.85-40.82-38.48A39.29,39.29,0,0,1,6457.94,1522.94Z"/><path class="cls-6" d="M5337.93,678.81c21.49-.36,39.85,17.46,40.33,39.16a39.42,39.42,0,0,1-38.52,40.47c-23.06.65-41.92-17.33-41.69-39.75C5298.26,697.21,5316.3,679.18,5337.93,678.81Z"/><path class="cls-13" d="M4661.87,2336.81c22.81-.53,40,15.87,40.53,38.66.52,22.25-16.58,40.63-38.43,41.32-21.67.68-40-17.08-40.48-39.23C4623,2354.58,4639.23,2337.35,4661.87,2336.81Z"/><path class="cls-6" d="M5697.85,444c.14,22.86-16.62,40.15-39.08,40.32s-39.61-16.88-39.79-39.65c-.18-22.5,17-40.29,39.13-40.52S5697.71,421.55,5697.85,444Z"/><path class="cls-13" d="M6068.46,1398.52c22.27-.1,40.42,17.46,40.51,39.2.1,22-17.65,39.51-40.12,39.59-22.88.08-40.06-16.7-40.12-39.2S6045.64,1398.62,6068.46,1398.52Z"/><path class="cls-10" d="M5784.11,1668c22.88.25,39.19,17.07,38.9,40.1-.28,22.4-17.92,39.73-40.14,39.42-21.63-.3-40-19.1-39.67-40.66C5743.5,1685.08,5761.73,1667.76,5784.11,1668Z"/><path class="cls-13" d="M3291.64,459.19c21.43-.4,40,17.32,40.8,38.88s-16.61,39.86-38.52,40.67c-23.33.87-41.62-16.47-41.65-39.48A39.93,39.93,0,0,1,3291.64,459.19Z"/><path class="cls-13" d="M6047.84,1552.5c22-.53,39.89,17,40.25,39.35.36,22.89-16.16,40.34-38.63,40.79s-39.9-16.49-40.32-39.17S6025.63,1553,6047.84,1552.5Z"/><path class="cls-10" d="M5448.15,1792.66c-21.81-.05-39.38-18.12-39.31-40.42.08-22.91,16.75-39.42,39.7-39.31,22.66.11,39.87,17.31,39.71,39.69C5488.09,1774.5,5469.85,1792.72,5448.15,1792.66Z"/><path class="cls-6" d="M5879.53,779.13c-21.77.62-39.95-17-40.38-39.24-.44-23.1,15.63-40,38.43-40.52s40,15.73,40.45,38.57C5918.5,760.18,5901.37,778.5,5879.53,779.13Z"/><path class="cls-6" d="M4877.5,2151.71c.08,22.19-17.57,40.3-39.37,40.4s-39.52-17.94-39.56-40.13c0-23,16.45-39.65,39.3-39.72S4877.42,2128.83,4877.5,2151.71Z"/><path class="cls-6" d="M5498.76,2107.46c22.3.21,40.23,18.1,39.91,39.82s-18.86,39.6-40.75,39.44c-22.29-.17-39.41-17.76-39.22-40.29C5458.89,2123.63,5475.74,2107.24,5498.76,2107.46Z"/><path class="cls-13" d="M6274.05,1258.07c.06,21.76-18,39.46-40.21,39.5-23,0-39.67-16.46-39.71-39.31s16.57-39.47,39.52-39.51C6255.91,1218.71,6274,1236.31,6274.05,1258.07Z"/><path class="cls-13" d="M5923.12,1727.18c-22.78-.23-39.17-17.08-39-40.07.18-22.22,18.07-40.08,39.87-39.8s39.32,18.47,39.09,40.68C5962.87,1710.77,5945.9,1727.41,5923.12,1727.18Z"/><path class="cls-13" d="M5397.76,1601.91c.38,23-15.9,39.87-38.74,40.25s-39.82-15.86-40.23-38.76a39.84,39.84,0,0,1,38.74-40.94C5379.28,1561.94,5397.4,1579.7,5397.76,1601.91Z"/><path class="cls-6" d="M6343.6,1084c23-.07,39.76,16.4,39.87,39.2s-16.46,39.47-39.45,39.57c-22.25.08-40.45-17.47-40.58-39.15S6321.44,1084.05,6343.6,1084Z"/><path class="cls-6" d="M5007.12,2356.32c21.79-.64,40,17,40.4,39.17.45,23.1-15.6,40.05-38.39,40.54-23,.48-40-15.73-40.53-38.53C4968.12,2375.28,4985.25,2357,5007.12,2356.32Z"/><path class="cls-13" d="M5963.13,1267.62c.26,22.18-17.19,40.37-39.05,40.71s-39.73-17.43-39.95-39.67c-.22-23,16.06-39.79,38.91-40.06S5962.87,1244.82,5963.13,1267.62Z"/><path class="cls-10" d="M4272.15,689.25c-21.87-.34-39.2-18.49-38.93-40.77.27-22.86,17.09-39.21,40.07-38.94s39.12,17.05,38.89,40.09C4312,671.77,4293.94,689.6,4272.15,689.25Z"/><path class="cls-6" d="M5498,1967.68c22.26-.19,40.47,17.27,40.72,39s-17.76,39.55-40,39.7c-23.06.16-39.84-16.17-40-39S5475.06,1967.87,5498,1967.68Z"/><path class="cls-6" d="M5697.89,540c-.38,22.88-17.28,39.21-40.2,38.84-22.67-.38-39-17.48-38.69-40.4.36-22.17,18.51-40,40.24-39.48S5698.26,517.72,5697.89,540Z"/><path class="cls-11" d="M4572.32,585.13c-.48,22.81-17.53,39.1-40.43,38.62s-38.88-17.49-38.43-40.55c.43-22.16,18.65-39.9,40.36-39.28S4572.79,562.89,4572.32,585.13Z"/><path class="cls-14" d="M4578.71,2676.31c-21.93.53-40-17.09-40.37-39.34-.37-23,15.95-40,38.71-40.39s40.19,16.17,40.61,38.73A40.13,40.13,0,0,1,4578.71,2676.31Z"/><path class="cls-13" d="M4368.05,774.6c-.49,21.84-18.75,39-41.05,38.67-22.89-.37-39.32-17.31-38.95-40.16s17.36-38.92,40.44-38.59C4350.73,734.84,4368.54,752.88,4368.05,774.6Z"/><path class="cls-6" d="M5702.94,1518.59c-.38,22.85-17.21,39-40.31,38.61-22.87-.36-38.95-17.11-38.62-40.22.31-22.44,17.85-39.46,40.21-39S5703.31,1496,5702.94,1518.59Z"/><path class="cls-6" d="M5788,818.54c.15,22.86-16.35,39.55-39.22,39.67S5709.15,842,5709,819.07s16.26-39.56,39.2-39.68S5787.84,795.65,5788,818.54Z"/><path class="cls-6" d="M5612.83,1923.07c-.38,22.91-17.1,38.86-40.29,38.46-22.95-.39-39-17.11-38.56-40.21.41-22.91,17.13-38.88,40.29-38.48C5597.15,1883.24,5613.23,1900,5612.83,1923.07Z"/><path class="cls-6" d="M5442.76,1517.05c.37,23-15.78,39.77-38.72,40.13s-39.86-15.79-40.2-38.63c-.33-22.58,16.49-40.23,38.71-40.62S5442.4,1494.64,5442.76,1517.05Z"/><path class="cls-10" d="M5697.88,1304.13c-.48,22.82-17.37,38.82-40.48,38.34-22.78-.47-39-17.52-38.48-40.43s17.51-38.84,40.56-38.32C5682.37,1264.23,5698.37,1281.07,5697.88,1304.13Z"/><path class="cls-18" d="M5659.17,678.55c-22.8.36-40.09-16.2-40.46-38.76s16.43-39.92,39-40.25c22.9-.34,39.92,16.07,40.26,38.81C5698.34,661.27,5682,678.19,5659.17,678.55Z"/><path class="cls-19" d="M4186.93,2436.2c21.3,1.13,36.57,18.74,35.14,40.53a36.77,36.77,0,0,1-38.63,34.77c-21.33-1.08-36.58-18.63-35.16-40.46C4149.61,2450.68,4166.85,2435.14,4186.93,2436.2Z"/><path class="cls-20" d="M5502.53,623.89c18.8-.42,36,16.18,36.17,34.93s-17,35.76-35.7,35.49c-18.06-.25-34-15.88-34.72-34C5467.55,641,5483.26,624.32,5502.53,623.89Z"/><path class="cls-21" d="M5753.73,704c-.17,18.93-17.25,35.73-35.88,35.28-19.16-.46-35.05-17.29-34.4-36.44.64-18.48,16.09-33.75,34.43-34C5736.72,668.5,5753.9,685.37,5753.73,704Z"/><path class="cls-21" d="M5247.74,2076.93c19.25-.28,35.72,15.81,35.78,35,0,18.76-17.06,35.5-35.9,35.11-18.13-.37-34.11-16.11-34.64-34.12C5212.41,2093.73,5228.38,2077.21,5247.74,2076.93Z"/><path class="cls-22" d="M5497.41,514.59c-19.4-.53-35-17.69-33.86-37.31a34.87,34.87,0,0,1,35.64-33c19.41.52,35.36,17.79,34.19,37C5532.26,499.74,5515.65,515.1,5497.41,514.59Z"/><path class="cls-22" d="M4918.53,2112.19c-18.49.27-34.23-14.92-34.93-33.7-.74-19.94,14.73-36.63,34.09-36.78a34.85,34.85,0,0,1,34.94,33.72C4953.38,2095.44,4938.1,2111.91,4918.53,2112.19Z"/><path class="cls-23" d="M6068.81,999.29c-.43,19.42-16.64,34.39-36.52,33.73-18.71-.63-33.84-15.84-34-34.21-.17-19.29,15.83-35,35.58-34.84S6069.25,979.88,6068.81,999.29Z"/><path class="cls-22" d="M5018.27,511.36c-1.4,19.79-18.05,33.72-38.43,32.16A34.51,34.51,0,0,1,4948,507.1c1.3-19.65,18.16-33.8,38.32-32.16C5005.2,476.47,5019.58,492.88,5018.27,511.36Z"/><path class="cls-6" d="M5618.32,2066c.47,19.52-15.77,36.24-35.13,36.18-18.54-.07-34.07-15.47-34.53-34.25a34.67,34.67,0,0,1,34.82-35.92C5602.11,2032.13,5617.88,2047.51,5618.32,2066Z"/><path class="cls-22" d="M5248.22,2496.06a34.48,34.48,0,0,1-33.64,34.72c-20.18.63-36.5-14.59-36.66-34.18s15.94-35.08,36.12-34.7A34.39,34.39,0,0,1,5248.22,2496.06Z"/><path class="cls-24" d="M5017.71,1951.83c18.41-.32,34.19,15,34.86,33.83.71,19.95-14.83,36.6-34.23,36.66a35,35,0,0,1-34.93-33.79C4982.66,1968.54,4998,1952.18,5017.71,1951.83Z"/><path class="cls-24" d="M5697.89,1902.11a34.64,34.64,0,0,1,35.17,33.31c.89,20-14.3,36.64-33.88,37-18.62.38-34.29-14.58-35.11-33.52C5663.21,1918.8,5678.2,1902.47,5697.89,1902.11Z"/><path class="cls-16" d="M5113.93,2041.48c-20.05.36-36.11-15.19-35.9-34.77a34.59,34.59,0,0,1,34.38-34c20.15-.32,36.33,15.27,36.09,34.77C5148.26,2026.18,5133.08,2041.13,5113.93,2041.48Z"/><path class="cls-6" d="M5107.68,2266.13c-19.14-.17-34.07-14.86-34.4-33.81-.34-19.86,15.28-35.29,35.42-35,19.18.27,34.33,15,34.7,33.81C5143.79,2250.75,5127.91,2266.31,5107.68,2266.13Z"/><path class="cls-6" d="M5018.9,2052.16c20.17.51,34.65,16.35,33.6,36.75a34.13,34.13,0,0,1-35.33,32.8c-19.86-.54-34.7-16.71-33.73-36.74A34.3,34.3,0,0,1,5018.9,2052.16Z"/><path class="cls-6" d="M4063.07,2406.27a34.12,34.12,0,0,1-35.1-33.11c-.81-20,14.18-36,34.08-36.37s35.29,15.26,35,35.36C4096.78,2391.65,4082.49,2406,4063.07,2406.27Z"/><path class="cls-12" d="M4658.5,2516.32a34.55,34.55,0,0,1-35.1-33.3c-.8-20.07,14.34-36.44,34-36.79a34.72,34.72,0,0,1,35.06,33.49C4693.33,2499.75,4678.24,2516,4658.5,2516.32Z"/><path class="cls-6" d="M5538.6,1861.87c-20.17.12-35.32-15.22-34.9-35.33.39-19,15.18-33.5,34.37-33.62,20.48-.12,35.26,14.88,34.8,35.32C5572.44,1847.59,5558,1861.76,5538.6,1861.87Z"/><path class="cls-13" d="M5612.91,864c-.15,20.36-15.33,34.78-35.91,34.1-19.15-.62-33.35-15.46-33.21-34.67.15-20,15.79-34.85,36-34.15C5599.11,830,5613.05,844.56,5612.91,864Z"/><path class="cls-25" d="M5668.75,310.54c-.6,15.84-15,29.52-30.77,29.26s-29.82-14.34-29.88-30.14c-.06-16.6,15.42-31.35,31.89-30.38C5655.83,280.22,5669.34,294.9,5668.75,310.54Z"/><path class="cls-25" d="M5553.05,424.53c-16-.19-29.89-14-30-29.9s13.67-30,29.54-30.44c16.53-.48,31.63,14.62,31.11,31.11C5583.21,411.18,5569,424.72,5553.05,424.53Z"/><path class="cls-26" d="M6568.4,1283.35c-.09,16.83-13.35,30.26-29.71,30.07-15.9-.17-29.94-14.52-29.82-30.45.13-16.13,14.2-30.18,30.13-30.09C6555.45,1253,6568.48,1266.48,6568.4,1283.35Z"/><path class="cls-25" d="M6018.92,1183.26c0,16.33-13.55,29.51-30.33,29.47s-30.29-13.22-30.27-29.61c0-15.91,14.29-30,30.36-30S6018.91,1167.4,6018.92,1183.26Z"/><path class="cls-27" d="M5598.21,173.91c.43,16.16-13,30.6-28.92,31.1-16.12.5-29.92-12.9-30.32-29.45-.41-16.95,12.09-30.51,28.63-31.05C5583.45,144,5597.77,157.75,5598.21,173.91Z"/><path class="cls-28" d="M5782.92,269.23c.17,16.89-12.67,30.44-29,30.61-16,.17-30-13.62-30.22-29.79A30.28,30.28,0,0,1,5753,239.52C5769.28,239.17,5782.74,252.55,5782.92,269.23Z"/><path class="cls-26" d="M5552.24,250.18c17-.55,30.68,11.78,31.38,28.31.68,15.89-12.9,30.35-29.08,31s-30.77-12.76-31.48-28.66S5535.76,250.72,5552.24,250.18Z"/><path class="cls-24" d="M4697.35,2291.77c-.06,16.49-13.58,30.22-29.66,30.12s-29.65-14.22-29.55-30.43,13.93-30.06,29.95-30.07C4684.36,2261.38,4697.4,2274.93,4697.35,2291.77Z"/><path class="cls-29" d="M5588.67,584.7c-.35,15.88-14.84,29.8-30.73,29.52a30.32,30.32,0,0,1-29.56-30.49c.21-16.58,13.63-29.37,30.57-29.12C5575.58,554.84,5589,568.47,5588.67,584.7Z"/><path class="cls-19" d="M5702.79,334.93c17-.35,30,12,30.3,28.95s-12.41,30.23-28.94,30.63a29.64,29.64,0,0,1-30.32-29.26C5673.44,348.3,5685.88,335.28,5702.79,334.93Z"/><path class="cls-22" d="M4852.41,2461.91c16.61-.3,30.48,12.72,30.83,28.92.34,16-13.34,29.94-29.66,30.2s-30.38-13.09-30.81-29.12C4822.33,2475.72,4835.68,2462.21,4852.41,2461.91Z"/><path class="cls-23" d="M5412.51,644.47c17-.37,30.13,12.11,30.49,28.93A29.68,29.68,0,0,1,5414,704c-16.06.36-30.43-13.26-30.86-29.24A29.77,29.77,0,0,1,5412.51,644.47Z"/><path class="cls-21" d="M5538.6,1511.79c.65,15.8-13.09,30.41-29.15,31s-30.78-13.06-31.41-28.85c-.65-16.29,12.48-30,29.25-30.51C5524.33,1482.9,5537.92,1495.21,5538.6,1511.79Z"/><path class="cls-28" d="M5479.06,199.65c-16.68.31-29.82-12.5-30.11-29.37s12.29-30.39,28.82-30.7c15.87-.29,30.24,13.57,30.57,29.5A30.17,30.17,0,0,1,5479.06,199.65Z"/><path class="cls-30" d="M5448.89,578.84c-16.86.3-30-12.3-30.34-29-.32-16.88,12.13-29.74,29.15-30.1s29.83,11.82,30.12,28.9S5465.85,578.54,5448.89,578.84Z"/><path class="cls-19" d="M5782.91,522.05c-1.38,16.69-15.23,28-32.38,26.51-16.74-1.48-28.4-15.55-26.78-32.31,1.57-16.22,16.55-28.62,32.6-27C5772.89,491,5784.31,505.05,5782.91,522.05Z"/><path class="cls-22" d="M4732.63,394.75c-.15,16.26-14.05,30.11-30,29.89-16.14-.22-29.37-14.08-29.2-30.57s13.72-30.11,29.84-29.91C4719.2,364.37,4732.79,378.53,4732.63,394.75Z"/><path class="cls-16" d="M4772.83,2216.91c0,16.07-13.9,30-29.87,30-16.55,0-29.39-13.13-29.42-30.05s12.54-29.54,29.56-29.51C4759.94,2187.35,4772.87,2200.21,4772.83,2216.91Z"/><path class="cls-31" d="M5598.36,704.47c-1.42,15.49-10.29,24.54-26.1,23.94-14.61-.55-23.58-9.38-23.45-24.55.14-16.44,10.48-25.08,25.76-24.59C5588.8,679.72,5597.54,688.79,5598.36,704.47Z"/><path class="cls-32" d="M5408.83,445.54c.12-15.59,8-24.67,22.77-25.57,15.87-1,26.07,8,26.58,23.74s-9.61,25.58-25.1,25.43C5418.92,469,5409.72,460.44,5408.83,445.54Z"/><path class="cls-33" d="M5479.68,329.09c-15-.7-24.67-7.21-25.66-22.62-1-16.37,8.29-26,23.55-26.67,15.44-.65,25.54,9,25.62,24.84C5503.27,319.38,5494,327.43,5479.68,329.09Z"/><path class="cls-34" d="M4718.51,538.46c-1.93,12.65-8.62,20.81-20.51,20.67-11.53-.14-19.82-6.94-19.62-19.79.19-12.47,7.2-19.26,19.65-19.56C4711.06,519.46,4716,528.09,4718.51,538.46Z"/></g></g></svg>