<svg xmlns="http://www.w3.org/2000/svg" viewBox="0 0 8438.75 2825.87"><defs><style>.cls-1{fill:#051d40;}.cls-2{fill:#cf1a83;}.cls-3{fill:#d01a83;}.cls-4{fill:#d01b83;}.cls-5{fill:#c32129;}.cls-6{fill:#a22a6a;}.cls-7{fill:#94131c;}.cls-8{fill:#a32a6a;}.cls-9{fill:#cf1b83;}.cls-10{fill:#c3222a;}.cls-11{fill:#a32b6a;}.cls-12{fill:#94141d;}.cls-13{fill:#a32b6b;}.cls-14{fill:#d11c83;}.cls-15{fill:#c4222a;}.cls-16{fill:#94141c;}.cls-17{fill:#c4232b;}.cls-18{fill:#d01d84;}.cls-19{fill:#d11d84;}.cls-20{fill:#a32c6b;}.cls-21{fill:#94151e;}.cls-22{fill:#d11c84;}.cls-23{fill:#a42e6c;}.cls-24{fill:#a42d6c;}.cls-25{fill:#d01e84;}.cls-26{fill:#d01c84;}.cls-27{fill:#c4242b;}.cls-28{fill:#d01c83;}.cls-29{fill:#a42d6b;}.cls-30{fill:#d11f85;}.cls-31{fill:#d11e85;}.cls-32{fill:#d12387;}</style></defs><title>PGC logo svg</title><g id="Layer_2" data-name="Layer 2"><g id="Layer_1-2" data-name="Layer 1"><path class="cls-1" d="M66.93,806V967H15.26V555.82h131q57.32,0,90.07,34.31t32.76,91.34q0,59.31-31.2,91.35T150,806Zm0-44.33h79.35q34.44,0,52.8-20.65t18.35-59.12q0-37-18.91-59.4t-52-22.35H66.93Z"/><path class="cls-1" d="M460,800.63H387.7V967h-52V555.82H451q60.42,0,91.49,31.49T573.5,679.5q0,38.12-16.81,66.49t-47.57,42.78l79.62,174.79V967H533.12ZM387.7,756.3h62.68q32.47,0,51.82-20.93t19.34-56q0-79.22-71.72-79.21H387.7Z"/><path class="cls-1" d="M910.07,797.53q0,84.14-35.86,129.6T772.28,972.59q-63.53,0-100.38-44.19T633.64,803.46V726.09q0-82.46,36.42-129.18t101.66-46.74q64.93,0,101.22,44.76T910.07,722.7Zm-51.67-72q0-65.22-21.32-97t-65.36-31.76q-42.65,0-64.52,32.19T685,723.83v73.7q0,63,21.88,96t65.37,33q43.49,0,64.38-30.5t21.74-93.46Z"/><path class="cls-1" d="M1131.73,555.82h52V846.94q0,59-30.08,92.33t-80.89,33.32q-52.24,0-81.32-31.62t-29.09-87.54H1014q0,35.31,15.53,55.07t43.21,19.76q26.82,0,42.92-21.46t16.09-60.14Z"/><path class="cls-1" d="M1466.61,776.91H1321.2v145.7h169.42V967h-221.1V555.82h218.27v44.33H1321.2V732.58h145.41Z"/><path class="cls-1" d="M1814.49,836.21q-3.39,66.07-37.13,101.23t-95.3,35.15q-61.85,0-98.26-47t-36.43-127.49V723.55q0-80.19,37.41-126.78t102.08-46.6q59.58,0,92.19,35.58t35.44,101.94h-52.24q-3.39-50.27-21.18-71.72t-54.21-21.46q-42.08,0-64.66,32.89t-22.59,96.43v75.39q0,62.41,21,95.72t61.42,33.32q40.38,0,58.17-20t22-72Z"/><path class="cls-1" d="M2116.62,600.15H2008.47V967H1956.8V600.15H1848.94V555.82h267.68Z"/><path class="cls-1" d="M533.31,1888.44,515.23,1911q-78,91-228.23,91-133.33,0-209.31-88.39T0,1663.67V1502.12q0-172.83,69.2-259T276.27,1157q117.48,0,183.87,65.41t73.17,186.86H429.92q-6.21-76.83-42.65-120T276.83,1246q-88.71,0-129.94,57.85T104,1488.65v167.61q0,124.15,47.46,190.46T287.56,1913q83.61,0,127.11-40.4l15.25-14V1670H279.66v-89H533.31Z"/><path class="cls-1" d="M805.68,1902h322.6v89H701.75V1168H805.68Z"/><path class="cls-1" d="M1749.56,1651.81q0,168.33-71.75,259.27t-204,90.93q-127.12,0-200.85-88.39t-76.53-249.95V1508.9q0-164.89,72.88-258.4T1472.73,1157q129.94,0,202.53,89.53t74.3,255.58Zm-103.39-144.12q0-130.53-42.66-194.1T1472.73,1250q-85.31,0-129.09,64.43t-44.34,189.85v147.49q0,126,43.78,192.12T1473.86,1910q87,0,128.8-61t43.51-187Z"/><path class="cls-1" d="M1909.09,1991V1168h234.43q112.41,0,169.21,54.83t56.78,164.47q0,57.66-28.81,101.75t-78,68.38q56.47,17,89.54,69.53t33.05,126.62q0,110.82-60.73,174.11T2151.45,1991Zm103.37-472h132.77q53.67,0,86.72-36.22t33-96.2q0-67.87-29.95-98.73T2143.52,1257H2012.46Zm0,87v296H2153.7q58.73,0,93.22-38.68t34.46-108.75Q2281.38,1606,2156,1606Z"/><path class="cls-1" d="M2923.64,1776H2645.69l-63.84,215H2475.64l265-823h88.7l265.52,823H2988.61Zm-250.84-89h224.28l-112.42-374.29Z"/><path class="cls-1" d="M3310.15,1902h322.6v89H3206.21V1168h103.94Z"/><path class="cls-1" d="M4401.2,1707.34Q4394.76,1853,4319.3,1928t-212.91,75q-144.51,0-221.42-95t-76.92-271.1V1493.58q0-175.45,79.54-270.52t221.13-95q139.21,0,211.45,77.94t82.21,223.59H4229.81q-2.34-90.09-27.79-124.31t-93.3-34.22q-69,0-97.69,48.21t-30.42,158.64v160.7q0,126.8,28.37,174.13t97.41,47.32q67.83,0,93.58-33t29.25-119.63Z"/><path class="cls-1" d="M5060.87,1139v590.05q-1.17,132.89-73.13,203.42T4781.24,2003q-136.87,0-209.12-71.4T4499.88,1725V1139H4673V1725.4q0,72.58,23.39,103.6t84.83,31q61.41,0,84.24-30.72t23.4-101V1139Z"/><path class="cls-1" d="M5449.2,1679h-85.41v312h-172V1139h274.35q129.28,0,199.76,66.93t70.49,190.21q0,169.5-123.42,237.29l149.15,349.37v8.2H5577.31Zm-85.41-143h97.69q51.47,0,77.22-34.23t25.73-91.59q0-128.16-100-128.18H5363.79Z"/><path class="cls-1" d="M6294.54,1623H6026.63v225h317.05v143h-489V1139h487.86v143H6026.63v202h267.91Z"/><path class="cls-2" d="M4706.81,560.69c13.67-33.26,32.36-61.83,68.24-75,53-19.47,112.17,6.19,133.85,58.3a104.75,104.75,0,0,1-53.34,135.59c-51.16,23.45-112,2-137.82-48.25-3.65-7.08-3.62-16.11-10.93-21.28Z"/><path class="cls-3" d="M6873.31,0c35.57,19.15,49.91,42.49,43.89,71.47-5.55,26.71-29.53,47.29-56.8,48.75-26.1,1.4-50.95-16.14-59.4-41.93-8.75-26.7,1.44-54.39,25.72-69.57,4.94-3.09,10.12-5.82,15.19-8.72Z"/><path class="cls-3" d="M6025.55,2825.87c-14.92-10.6-31.17-19.7-36-39.76-6.92-28.51,7.68-57.76,34.18-67,26.68-9.25,55.91,2.48,68.23,27.37,12.85,25.95,3.87,55.86-21.61,71.75-4.34,2.71-8.9,5.07-13.36,7.59Z"/><path class="cls-4" d="M8438.75,1099c-10.77,10.59-19.44,23.74-37.41,23.93-20.37.22-36.71-10.34-41.37-29.88-4.73-19.84,2.94-35.08,20.39-44.82,16.41-9.16,38.21-4,50,10.91,3.17,4,5.64,8.62,8.43,13Z"/><path class="cls-5" d="M6682.1,2341.54c-54.7-.25-99.67-45.34-99.72-100s44.73-99.17,100.07-99.5c56-.33,101.53,45.28,100.74,100.95C6782.41,2297.67,6737.14,2341.79,6682.1,2341.54Z"/><path class="cls-6" d="M5376.4,234.19c-55.42-.28-99.69-44.54-99.59-99.58.1-55.7,45.65-100,102.21-99.3,54.75.64,99.52,46.41,98.58,100.8C5476.65,191.25,5432.06,234.46,5376.4,234.19Z"/><path class="cls-5" d="M6552.58,543.85c-52.92-.07-96-43.16-95.27-95.3.73-51.69,43-93.75,94.54-94.15,52.66-.41,96.15,42.23,96.39,94.53S6605.53,543.92,6552.58,543.85Z"/><path class="cls-5" d="M6527.87,194.11c.29,52.59-42.36,95.5-95.1,95.69-52.58.2-95.09-42.68-94.8-95.63a95.11,95.11,0,0,1,93.65-94.72C6483.68,98.6,6527.59,141.78,6527.87,194.11Z"/><path class="cls-6" d="M7107.6,398.23c.45,50.31-38.18,90.25-87.92,90.9-50.89.65-92-39.39-92.05-89.66,0-49.07,40.44-89.66,89.72-90C7067.3,309.22,7107.15,348.39,7107.6,398.23Z"/><path class="cls-6" d="M6827.72,329.15c-50.3-.11-89.41-39.09-89.52-89.22-.11-50.6,41.14-91.61,91.08-90.56,49.23,1,89.15,41.94,88.81,91C6917.75,289.79,6877.56,329.26,6827.72,329.15Z"/><path class="cls-6" d="M7618.85,978.27c-47.39.21-85.82-37.7-85.83-84.65,0-46.56,39.42-85.69,85.87-85.24,46.11.46,83.92,38.2,84.35,84.21C7703.69,940.34,7666.54,978.06,7618.85,978.27Z"/><path class="cls-5" d="M5562.65,260.45c-.35-47.91,36.72-85.53,84.39-85.63,47.19-.11,86,38.48,85.68,85.08-.36,46-38,84-84,84.93C5601.77,345.76,5563,307.75,5562.65,260.45Z"/><path class="cls-5" d="M7138.08,2356.16c-47.76,0-85.46-37.62-85.19-85s38.72-84.73,86.29-84.1c46.78.61,83.72,37.61,84,84.08C7223.4,2318.69,7185.94,2356.14,7138.08,2356.16Z"/><path class="cls-5" d="M4962.19,908.93c-.17,47-39,85.21-86.1,84.64a84.62,84.62,0,0,1-84.15-86.27c.56-46.55,37.62-82.93,84.65-83.11C4924.29,824,4962.36,861.7,4962.19,908.93Z"/><path class="cls-2" d="M5007.14,308.7c.32-47,39.26-85,86.31-84.22,45.9.73,83.75,39,83.92,84.78.17,46.67-38.74,85.45-85.6,85.31A85,85,0,0,1,5007.14,308.7Z"/><path class="cls-5" d="M5657.88,384.82c47.54.22,85.41,38.5,84.73,85.65-.67,46-38.44,83.4-84.75,83.95-46.89.57-85.46-37.84-85.47-85.11C5572.37,421.67,5609.89,384.59,5657.88,384.82Z"/><path class="cls-2" d="M5286.57,259.88c48.07-.18,85.17,36.72,85.12,84.67,0,47.26-38.34,85.57-85.26,85.27-45.55-.28-84-38.52-84.76-84.23C5200.92,298.92,5239.42,260.05,5286.57,259.88Z"/><path class="cls-5" d="M7107.66,583.73c.18,47.92-36.89,85.1-84.81,85-47.31-.06-85.73-38.54-85.22-85.36.5-45.79,38.38-83.75,84.37-84.55C7068.67,498.06,7107.48,536.5,7107.66,583.73Z"/><path class="cls-5" d="M7328.23,1732.1c-47.49,0-85.78-38.13-85.33-85s39.81-85.49,86.29-84.74a85,85,0,0,1,83.62,84.6C7413.1,1694.93,7376.19,1732.08,7328.23,1732.1Z"/><path class="cls-6" d="M7587.92,1353.33c-.14,47.19-38.82,85.57-85.53,84.85-46.23-.72-83.87-38.34-84.34-84.3-.48-47.1,37.46-85.23,84.93-85.35C7551,1268.4,7588.06,1305.38,7587.92,1353.33Z"/><path class="cls-5" d="M6147.25,504.8c-.2,47.72-37.79,84.46-85.86,83.94-46.42-.5-83.88-37.77-84.38-83.93-.49-46.48,38.53-85.51,85.45-85.45C6110,419.42,6147.46,457.14,6147.25,504.8Z"/><path class="cls-6" d="M5477.65,2524.84c-.39-46.12,35.32-83.06,81.06-83.84,44.84-.76,83,36.47,83.86,81.73.82,44.91-36.49,83-81.76,83.41C5514.67,2606.59,5478.05,2570.79,5477.65,2524.84Z"/><path class="cls-7" d="M7483.31,933.48a80,80,0,0,1-79.37,80.16c-44.67.36-81.87-36.75-81.17-80.94.68-43.46,37.58-79.68,80.85-79.37C7447.33,853.64,7483.25,889.76,7483.31,933.48Z"/><path class="cls-6" d="M6877.16,2431.28c-44.05-.29-79.78-36.16-79.59-79.9.19-44.3,38.11-81.18,82.27-80,43.66,1.15,79.17,38.11,78.37,81.56C6957.4,2396.84,6921.47,2431.58,6877.16,2431.28Z"/><path class="cls-5" d="M7478.52,402.52c.72-43.81,37.55-79.42,81.08-78.4,43.77,1,79.43,37.63,79,81.05-.47,44.66-37.85,80.44-82.71,79.19C7511.87,483.13,7477.79,447.06,7478.52,402.52Z"/><path class="cls-6" d="M7157.74,2081.89a74.83,74.83,0,0,1-75.23,75.28c-41.24-.25-75.07-34.83-74.58-76.23.47-40.4,34-73.83,74.43-74.2A74.72,74.72,0,0,1,7157.74,2081.89Z"/><path class="cls-6" d="M5343.65,2224.9a71.7,71.7,0,1,1-70.51-71.76A71.83,71.83,0,0,1,5343.65,2224.9Z"/><path class="cls-2" d="M5099.62,548.9c36.43.09,67.34,30.45,67.85,66.61.52,37.41-30.31,68.44-68,68.43a67,67,0,0,1-67.43-68.54C5032.8,578.45,5062.93,548.81,5099.62,548.9Z"/><path class="cls-2" d="M4922.06,369.55c0,35.76-30.09,65.55-65.79,65.16A65.15,65.15,0,0,1,4792,368.32a64.36,64.36,0,0,1,64.44-63.57C4892.84,304.55,4922.06,333.38,4922.06,369.55Z"/><path class="cls-5" d="M7582.59,1552.43c-36.8-.31-64.62-29.09-64-66.18a64.52,64.52,0,0,1,64-63.71c35.52-.41,66.05,29.73,66.11,65.28C7648.8,1523.81,7619.19,1552.74,7582.59,1552.43Z"/><path class="cls-8" d="M5537,299.33c.07,36.8-28.23,64.89-65.21,64.73-36.31-.15-65.45-29.57-64.88-65.5.54-34.67,29.83-63.84,64.57-64.31C5507.45,233.77,5536.91,263,5537,299.33Z"/><path class="cls-2" d="M5282.63,578.91c-36.79.2-65.2-28.07-65.13-64.83A64.78,64.78,0,0,1,5280.6,449c35.49-.85,66.32,28.71,66.95,64.19C5348.18,549.1,5318.92,578.71,5282.63,578.91Z"/><path class="cls-8" d="M5747.37,410.05a59.26,59.26,0,0,1,58.77-60.38c34-.54,61.9,26.74,61.66,60.21-.23,32.31-27.76,59.63-60.32,59.86C5775.24,470,5747.7,442.62,5747.37,410.05Z"/><path class="cls-8" d="M6402.53,470.09a59.43,59.43,0,0,1-60.08,59.17c-32.59-.08-59.94-27.15-60.22-59.61-.29-33,28.79-61.61,61.73-60.65A60.42,60.42,0,0,1,6402.53,470.09Z"/><path class="cls-5" d="M7027.2,1777c-33.37-.34-59.6-26.72-59.44-59.78a60.2,60.2,0,0,1,60-59.67c33.8-.16,61.39,27.77,60.55,61.32C7087.45,1752,7060.76,1777.35,7027.2,1777Z"/><path class="cls-3" d="M6863.86,484.36c33.22.39,59.14,26.86,59,60.19-.17,32.66-27.21,59.82-59.73,60-33.08.18-61.74-29-60.61-61.8S6831,484,6863.86,484.36Z"/><path class="cls-7" d="M7398.14,1204.28a59.46,59.46,0,0,1,58.49-60.74c34.15-.69,62.1,26.24,62,59.77-.08,32.43-27.39,59.88-59.92,60.21S7398.66,1236.84,7398.14,1204.28Z"/><path class="cls-2" d="M6312.63,208.83c.38,33.33-25.41,60-58.58,60.55-34.23.58-62.11-26.43-61.88-59.93.21-32.37,27.76-59.91,60.09-60.08S6312.27,176.33,6312.63,208.83Z"/><path class="cls-5" d="M7218.35,1887.38c0,32.76-26.82,59.43-59.85,59.61-34.05.18-61.38-27.29-60.7-61,.65-32.4,28.63-59.46,61-59C7191.38,1827.48,7218.39,1854.86,7218.35,1887.38Z"/><path class="cls-8" d="M6641.68,144.4c-33.22-.5-59.66-27.29-59.28-60.06.39-33.85,28.13-59.93,62.64-58.89,33.26,1,58.63,27.84,57.79,61.13C6702,119.63,6675.28,144.9,6641.68,144.4Z"/><path class="cls-3" d="M5470.42,543.72c-33.16-.71-59.44-27.88-58.64-60.61.81-33,27.55-58.57,61-58.27,34.38.31,60.5,27.49,59.35,61.77C5531.06,519.62,5504.21,544.46,5470.42,543.72Z"/><path class="cls-5" d="M6788,414.2a59.76,59.76,0,0,1,59.59-59.8c32.6-.2,60.16,26.58,60.8,59.07.66,33-28,61.72-61.16,61.21C6814.53,474.18,6787.89,447,6788,414.2Z"/><path class="cls-2" d="M6217.93,354.8c-.22,33-26.75,59.07-60.12,59.16-34.37.09-61.16-27-60.38-60.95.76-33,27.45-58.4,61-58C6191.79,295.38,6218.15,321.9,6217.93,354.8Z"/><path class="cls-3" d="M7032.52,44.88a60,60,0,0,1,60.54,58.9c.57,33.38-27.51,61.81-60.67,61.42-32.26-.38-59.91-28.28-59.83-60.38C6972.65,72.48,7000,45.13,7032.52,44.88Z"/><path class="cls-7" d="M6116,718.57a59.44,59.44,0,0,1-58.69-60.52c.6-33,27.38-58.85,60.72-58.63,34.11.22,61.05,28.06,59.79,61.77C6176.55,694.23,6149.61,719.23,6116,718.57Z"/><path class="cls-8" d="M5927.18,585.09c-.42,32.74-27.61,59.54-60.22,59.34-32.25-.19-59.81-27.8-60-60.11-.19-33.19,28-60.44,62-59.81C5902.23,525.12,5927.61,551.52,5927.18,585.09Z"/><path class="cls-6" d="M6605.63,274.21c-32.68-.86-59.38-28.88-58.21-61.11a60.75,60.75,0,0,1,61.36-58.39c33.84.52,59.81,28.27,58.65,62.67C6666.32,250.5,6639.57,275.09,6605.63,274.21Z"/><path class="cls-9" d="M6272.42,334.58c-.06-30.2,25.59-55.75,55.7-55.48,29,.27,54.11,25,54.91,54.22.81,29.94-24.42,56-54.76,56.45C6298.2,390.26,6272.48,364.84,6272.42,334.58Z"/><path class="cls-9" d="M7682.2,569.41c-30.24-.64-55.4-27-54.29-56.84,1.08-29.13,26.5-53.73,55.47-53.67,30.22.05,55.54,25.67,55.28,55.94S7712.46,570.05,7682.2,569.41Z"/><path class="cls-4" d="M5917.69,2666.26c-.06,30.14-26.1,55.82-56,55.16-30.23-.66-55.52-26.8-54.78-56.6.72-29.26,25.55-53.58,55.05-53.92C5892.13,2610.55,5917.75,2636,5917.69,2666.26Z"/><path class="cls-3" d="M6153.33,2476.17c30.3.41,55.44,26.36,54.64,56.4-.77,29-26.25,54-55.1,54-30.35.08-55.61-25.22-55.46-55.52S6123,2475.76,6153.33,2476.17Z"/><path class="cls-8" d="M7138,1163.05c.15-30.33,25.61-55.34,55.9-54.91s55.3,26.3,54.48,56.47c-.78,29.1-26,53.89-55,54C7163.05,1218.73,7137.85,1193.45,7138,1163.05Z"/><path class="cls-3" d="M5832.51,2562.26c-.56,30.63-25.47,54.11-56.71,53.45-29.7-.62-53.79-24.92-53.88-54.35-.1-30.21,25.06-54.79,55.89-54.61S5833.07,2531.64,5832.51,2562.26Z"/><path class="cls-3" d="M6537.41,2420.36c.47,31.34-23,55.55-54,55.83-31.29.28-55.14-23.33-55.2-54.64-.05-30.63,22.41-53.8,52.87-54.54C6512.68,2366.24,6536.94,2389.2,6537.41,2420.36Z"/><path class="cls-2" d="M7928.05,569.89c-.31,31.21-24.39,54.46-55.84,53.91-31.11-.54-54.09-24.85-53.33-56.42.73-30.32,24-52.72,54.7-52.65C7905.11,514.79,7928.37,538.35,7928.05,569.89Z"/><path class="cls-3" d="M6327.18,2416.92c-.2,31.12-24.64,55.13-55.53,54.54-30.74-.58-54.33-25.42-53.67-56.49a54.42,54.42,0,0,1,54.47-53.55C6303.16,2361.37,6327.38,2385.93,6327.18,2416.92Z"/><path class="cls-8" d="M5977.21,2655.83a54.5,54.5,0,0,1-54.8-55.42c.37-30.85,24.94-54.26,56.37-53.7a54.68,54.68,0,0,1,53.92,54.19C6033,2631.37,6008.16,2655.91,5977.21,2655.83Z"/><path class="cls-3" d="M6433.54,2626a54.86,54.86,0,1,1,54.09-56.16C6488.36,2600.84,6464.64,2625.47,6433.54,2626Z"/><path class="cls-8" d="M7223.14,899.76c-.53,30.34-26.57,55.25-56.65,54.2-29.22-1-53.78-26.29-53.73-55.27.05-30.22,25.57-55.41,55.86-55.15S7223.67,869.35,7223.14,899.76Z"/><path class="cls-3" d="M6121.78,2705.62c-30.57-.32-55.63-25.91-54.68-55.84a55.24,55.24,0,0,1,55.09-53.24c30.79-.12,55.72,24.44,55.59,54.77C6177.66,2681.86,6152.82,2706,6121.78,2705.62Z"/><path class="cls-3" d="M5557.8,2353.29a54.47,54.47,0,0,1,56.1-51.89c31.21.94,55.15,27.81,53,59.51-1.95,29.27-28.34,52.7-57.29,50.86C5578.91,2409.82,5556.27,2384.29,5557.8,2353.29Z"/><path class="cls-3" d="M7763.91,1342.6c-31.11.23-55.89-24-55.86-54.57,0-30.2,25.37-55,55.95-54.69a55.44,55.44,0,0,1,54.84,53.65C7819.76,1316.79,7794.49,1342.38,7763.91,1342.6Z"/><path class="cls-5" d="M7412.82,778.86c0,31-24.51,55.47-55.19,55.15-30.47-.32-54.67-25.45-54.17-56.24a55,55,0,0,1,54.13-54.18C7387.92,723.22,7412.84,748.16,7412.82,778.86Z"/><path class="cls-8" d="M4985.94,808.35c-30.65-.42-55.31-25.87-54.33-56.05s26.54-53.87,57.46-53c29.49.85,53.5,25.62,53.33,55C5042.22,784.45,5016.8,808.78,4985.94,808.35Z"/><path class="cls-8" d="M7978.07,874c-.16,31.21-24.27,54.94-55.42,54.55-30.71-.39-54.51-25.16-53.92-56.15.57-30.2,23.92-53,54.39-53.2C7954.51,819.05,7978.23,842.7,7978.07,874Z"/><path class="cls-10" d="M7290.16,1477.63c-29.26-.3-52.89-24.06-52.46-52.74.42-28.51,24.95-52.43,53.45-52.12s52.71,24.77,52.36,53.11A52.53,52.53,0,0,1,7290.16,1477.63Z"/><path class="cls-4" d="M6682.27,2570.84c-27.77-.24-49.87-22.19-49.88-49.55,0-26.9,22.72-49.62,49.91-49.87,28.25-.26,51.78,23.27,51,51C6732.47,2549.9,6710.16,2571.08,6682.27,2570.84Z"/><path class="cls-8" d="M6718.61,404.13c-27.7.38-50.26-20.93-51.11-48.28-.87-28,22.08-51.2,50.61-51.11a49.62,49.62,0,0,1,49.83,49.47C6768.09,381.82,6746.42,403.75,6718.61,404.13Z"/><path class="cls-8" d="M7268.33,1218.66c28.16.07,49.35,21.13,49.5,49.2a49.83,49.83,0,0,1-48.78,50.5c-28.13.59-51-22.36-50.67-50.87C7218.69,1239.57,7240.16,1218.59,7268.33,1218.66Z"/><path class="cls-11" d="M6978.09,2192.25c28.31,0,49.39,20.93,49.57,49.13a49.91,49.91,0,0,1-48.85,50.49c-27.85.54-51.63-23.07-51.17-50.82C6928.08,2213.77,6950.38,2192.21,6978.09,2192.25Z"/><path class="cls-5" d="M7748.2,1809.46c-1,27.4-23.55,48.37-51.34,47.68-28.5-.71-49.54-23.89-48.08-53,1.39-27.56,23.89-47.54,52.24-46.37C7728.53,1759,7749.2,1781.57,7748.2,1809.46Z"/><path class="cls-5" d="M7407.79,1807.54c-.08,27.94-21.42,49.43-49.24,49.59-28.64.17-50.89-22.42-50.28-51,.6-27.59,22.61-48.61,50.6-48.32S7407.88,1779.42,7407.79,1807.54Z"/><path class="cls-11" d="M6848.17,2057.39c28.19.11,49.32,21.2,49.42,49.34a50.11,50.11,0,0,1-49,50.43c-27.71.5-51.48-23.27-51-51C6798,2079,6820.55,2057.28,6848.17,2057.39Z"/><path class="cls-8" d="M5357.17,2371.61c-.08-27.48,21.68-49.29,49.44-49.57,28.27-.29,49.73,20.45,50.17,48.48.45,28.66-22,51.6-50.22,51.24A50.32,50.32,0,0,1,5357.17,2371.61Z"/><path class="cls-11" d="M7978.78,1393.31c27.63.1,50,22.17,50.06,49.34.06,26.81-22.72,50-49.53,50.49-27.57.48-51.7-23.55-51.23-51C7928.54,1415.09,7951.26,1393.21,7978.78,1393.31Z"/><path class="cls-11" d="M7043.32,250c-.18-25.82,19-45,45-44.85,25.59.1,45.36,20,44.93,45.3-.4,23.59-20.63,43.94-44.27,44.51C7064.38,295.58,7043.51,275,7043.32,250Z"/><path class="cls-12" d="M7237.08,739.31c26-.51,45.48,18.36,45.67,44.19.2,25.45-19.75,45.8-44.8,45.69-23.62-.1-44.2-20-45.21-43.74C7191.68,760.75,7211.81,739.8,7237.08,739.31Z"/><path class="cls-8" d="M7447.9,1079.29c-.41,25.51-20.4,44.36-46.23,43.6-24.53-.72-43.65-20.1-43.72-44.31-.08-24.56,20.94-45.51,45.58-45.44S7448.3,1054.24,7447.9,1079.29Z"/><path class="cls-4" d="M6476.23,2686.37c23.59.44,42.51,19.87,42,43.09-.54,22.59-21.34,42.46-43.82,41.85-23.54-.63-41.66-19.79-41.25-43.63S6452.17,2685.92,6476.23,2686.37Z"/><path class="cls-4" d="M6247.54,2743.69c-.17,23.75-18.82,42.12-42.66,42s-42-18.56-41.91-42.51c.12-23.47,19.26-42.63,42.39-42.45S6247.71,2720.55,6247.54,2743.69Z"/><path class="cls-4" d="M7527.44,579a40.43,40.43,0,0,1,40.91,38.7c.77,21.61-16.48,40.33-38.15,41.41a40.42,40.42,0,0,1-42.08-39.75C7488,597.76,7505.78,579.47,7527.44,579Z"/><path class="cls-13" d="M7523.41,1592.14c.3,21.63-17.32,39.88-39.08,40.47a40.3,40.3,0,0,1-41.16-38.33c-.94-22.47,17.63-41.79,40.13-41.77C7504.93,1552.53,7523.1,1570.49,7523.41,1592.14Z"/><path class="cls-4" d="M6257.91,489.27c0,21.55-18,39.61-39.69,39.92a39.68,39.68,0,0,1-40.36-41.06c.55-21.79,18.85-39.48,40.36-39C6239.89,449.57,6257.93,467.83,6257.91,489.27Z"/><path class="cls-4" d="M7187.69,1423.22c-.1,22.35-17.07,39.28-39.44,39.33-22,0-40-17.18-40.56-38.89s19.43-41.65,41.21-41A40.07,40.07,0,0,1,7187.69,1423.22Z"/><path class="cls-4" d="M7783.53,784.13c-21.65,0-39.69-17.76-40-39.52a39.7,39.7,0,0,1,41-40.44c21.82.52,39.58,18.77,39.19,40.26C7823.27,766.08,7805.07,784.09,7783.53,784.13Z"/><path class="cls-9" d="M8098.2,629.09c0,22.37-16.82,39.4-39.18,39.59a40.09,40.09,0,0,1-40.81-38.59c-.74-21.78,19-41.74,40.89-41.3A40,40,0,0,1,8098.2,629.09Z"/><path class="cls-11" d="M7059.15,1877.18a40.47,40.47,0,0,1-41.4-38.18c-1.11-21.35,16.24-40.08,38-41,23.8-1.06,41.73,15.5,42,38.79C7098.08,1859,7081.24,1876.64,7059.15,1877.18Z"/><path class="cls-14" d="M7927.46,1767.28c-21.87-.51-39.54-18.6-39.3-40.23.26-22.06,20.4-41,42.34-39.78,21.63,1.19,38.3,19.67,37.64,41.71S7949.68,1767.8,7927.46,1767.28Z"/><path class="cls-11" d="M7108.47,843.5c-22.2.18-40-16.74-40.6-38.68-.65-22.13,18.75-41.76,40.81-41.28,21.74.48,38.93,18.34,38.9,40.41C7147.55,826.57,7131,843.32,7108.47,843.5Z"/><path class="cls-13" d="M7218.31,1024.26c-.41,21.63-18.52,39.07-40.45,39a39.75,39.75,0,0,1-39.8-39.46c-.14-22.58,19.08-41.38,41.41-40.49C7201.15,984.12,7218.71,1002.66,7218.31,1024.26Z"/><path class="cls-13" d="M7698.42,1067.58a39.81,39.81,0,0,1-38.73,40.53c-22,.66-40.46-16.18-41.48-37.83-1.05-22.38,17.48-41.93,39.9-42.09C7679.65,1028,7698,1045.92,7698.42,1067.58Z"/><path class="cls-4" d="M7213.39,1323.51c-.26,21.54-18.43,39.5-40.13,39.67-22.49.18-40.75-18.86-39.94-41.66a39.92,39.92,0,0,1,40.83-38.45C7195.86,1283.65,7213.66,1302,7213.39,1323.51Z"/><path class="cls-4" d="M7878.52,1023.28a40,40,0,1,1-1.31,80.07c-21.76-.67-39.5-19.13-39-40.58C7838.74,1041,7856.93,1023.2,7878.52,1023.28Z"/><path class="cls-4" d="M7402.47,2001.77c21.64-.46,39.91,17.07,40.55,38.91.66,22.27-15.9,40.1-38,40.92-23,.84-42.14-17.13-42.13-39.48C7362.91,2020.83,7381.16,2002.21,7402.47,2001.77Z"/><path class="cls-15" d="M7703.22,648.42a40,40,0,0,1-38.65,40.78c-22.22.72-41.76-18.35-41.55-40.54.2-21.6,18.12-39,40.2-39.12C7685.66,609.45,7702.88,626.19,7703.22,648.42Z"/><path class="cls-13" d="M7088.21,1951.61c.36,21.61-17.23,39.67-39.13,40.16-22.13.5-40.23-16.28-41.08-38.1-.87-22.51,17.67-41.82,40.11-41.76C7069.56,1912,7087.85,1930.08,7088.21,1951.61Z"/><path class="cls-4" d="M6887.4,1888.47c-.61,22.24-19,39.82-40.76,38.93S6807,1907.56,6807.8,1886c.83-22.27,18.77-38.91,41.35-38.35S6888,1865.49,6887.4,1888.47Z"/><path class="cls-4" d="M6298,2531.81c-.25,21.54-18.24,38.9-40.35,39-23.57,0-40.41-17.44-39.58-41.12a39.34,39.34,0,0,1,40.68-38.35C6280.31,2491.9,6298.23,2510.41,6298,2531.81Z"/><path class="cls-4" d="M7412.61,2201c.34,22.33-16.87,40.58-38.68,41-22,.45-39.83-17.13-40.19-39.52-.36-22.88,16.13-40.16,38.72-40.57S7412.27,2178.18,7412.61,2201Z"/><path class="cls-4" d="M7608.53,1182.08c.62,21.35-16.91,40.25-38.42,41.43-22.18,1.21-41.74-17.51-41.82-40a39.73,39.73,0,0,1,39.34-39.87C7589.57,1143.27,7607.9,1160.5,7608.53,1182.08Z"/><path class="cls-4" d="M7609.14,2001.48c-23.08.37-40.22-15.86-40.66-38.5s16.16-39.83,39-40.25c22.59-.41,40.57,16.44,41.14,38.56C7649.18,1983,7631.35,2001.12,7609.14,2001.48Z"/><path class="cls-15" d="M6982.59,1948.6c-.71,22.29-18.25,38.93-40.5,38.44-23.16-.52-39.83-18.87-38.56-42.44,1.18-21.87,19.88-38.83,41.45-37.59C6966.92,1908.27,6983.29,1926.38,6982.59,1948.6Z"/><path class="cls-13" d="M7348.28,1223.52c-21.65,0-39.6-17.73-39.94-39.55a39.48,39.48,0,0,1,38.69-40.38c22.84-.58,41.84,17.85,41.44,40.2C7388.09,1205.16,7369.56,1223.48,7348.28,1223.52Z"/><path class="cls-4" d="M6513.79,2256.55a40.08,40.08,0,1,1-3.11,80.1c-22-1.19-38.06-19.11-37.37-41.57C6474,2273,6491.93,2255.89,6513.79,2256.55Z"/><path class="cls-11" d="M7282.05,1058.45a39.93,39.93,0,0,1-39-40.43c.26-21.59,18.39-39.61,39.94-39.7,22.5-.1,40.33,18.73,39.59,41.8A39.08,39.08,0,0,1,7282.05,1058.45Z"/><path class="cls-4" d="M6927.45,1762.66c22.25-.22,39.75,16.62,40.26,38.74.52,22.8-17.95,41.62-40.45,41.2-21.24-.39-39.7-19.17-39.62-40.3C6887.72,1780.63,6905.54,1762.88,6927.45,1762.66Z"/><path class="cls-12" d="M7183.42,1657.59a40.27,40.27,0,0,1-40.54-39c-.62-22.59,17.75-40.67,41-40.36,22.33.29,39.33,17.49,39.23,39.7A39.84,39.84,0,0,1,7183.42,1657.59Z"/><path class="cls-4" d="M7481.86,1827.1a40.59,40.59,0,0,1,41.49,38.18c1.22,21.49-15.89,40.35-37.6,41.44-23.12,1.17-42.2-16.15-42.61-38.68C7442.75,1846.44,7460.4,1827.78,7481.86,1827.1Z"/><path class="cls-11" d="M8164.51,963.83c-21.58.59-39.76-16.86-40.39-38.75-.64-22.53,15.44-40.23,37.56-41.32a40,40,0,0,1,42.06,39.58C8203.92,944.81,8186.07,963.24,8164.51,963.83Z"/><path class="cls-15" d="M6587,2421.68c-21.68-.48-39.45-18.69-39.36-40.32a40.09,40.09,0,0,1,41.91-39.79c22.08,1,38.3,18.72,37.72,41.22C6626.73,2404.8,6608.74,2422.17,6587,2421.68Z"/><path class="cls-4" d="M7582.75,1062.88c.25,22.46-16.24,39.82-38.42,40.47a39.87,39.87,0,0,1-41.1-40.47c.3-21.56,18.5-39.59,40-39.64S7582.51,1040.92,7582.75,1062.88Z"/><path class="cls-4" d="M8172.69,1522.94c22.18-.41,40.56,16.93,41.18,38.83s-17.11,39.91-39.34,40.31c-23,.42-40.27-15.85-40.82-38.48A39.29,39.29,0,0,1,8172.69,1522.94Z"/><path class="cls-4" d="M7052.68,678.81c21.49-.36,39.85,17.46,40.33,39.16a39.42,39.42,0,0,1-38.52,40.47c-23.06.65-41.92-17.33-41.69-39.75C7013,697.21,7031.05,679.18,7052.68,678.81Z"/><path class="cls-11" d="M6376.62,2336.81c22.81-.53,40,15.87,40.53,38.66.52,22.25-16.58,40.63-38.43,41.32-21.67.68-40-17.08-40.48-39.23C6337.74,2354.58,6354,2337.35,6376.62,2336.81Z"/><path class="cls-4" d="M7412.6,444c.14,22.86-16.62,40.15-39.08,40.32s-39.61-16.88-39.79-39.65c-.18-22.5,17-40.29,39.13-40.52S7412.46,421.55,7412.6,444Z"/><path class="cls-11" d="M7783.21,1398.52c22.27-.1,40.42,17.46,40.51,39.2.1,22-17.65,39.51-40.12,39.59-22.88.08-40.06-16.7-40.12-39.2S7760.39,1398.62,7783.21,1398.52Z"/><path class="cls-8" d="M7498.86,1668c22.88.25,39.19,17.07,38.9,40.1-.28,22.4-17.92,39.73-40.14,39.42-21.63-.3-40-19.1-39.67-40.66C7458.25,1685.08,7476.48,1667.76,7498.86,1668Z"/><path class="cls-11" d="M5006.39,459.19c21.43-.4,40,17.32,40.8,38.88s-16.61,39.86-38.52,40.67c-23.33.87-41.62-16.47-41.65-39.48A39.93,39.93,0,0,1,5006.39,459.19Z"/><path class="cls-11" d="M7762.59,1552.5c22-.53,39.89,17,40.25,39.35.36,22.89-16.16,40.34-38.63,40.79s-39.9-16.49-40.32-39.17S7740.38,1553,7762.59,1552.5Z"/><path class="cls-8" d="M7162.9,1792.66c-21.81-.05-39.38-18.12-39.31-40.42.08-22.91,16.75-39.42,39.7-39.31,22.66.11,39.87,17.31,39.71,39.69C7202.84,1774.5,7184.6,1792.72,7162.9,1792.66Z"/><path class="cls-4" d="M7594.28,779.13c-21.77.62-39.95-17-40.38-39.24-.44-23.1,15.63-40,38.43-40.52s40,15.73,40.45,38.57C7633.25,760.18,7616.12,778.5,7594.28,779.13Z"/><path class="cls-4" d="M6592.25,2151.71c.08,22.19-17.57,40.3-39.37,40.4s-39.52-17.94-39.56-40.13c0-23,16.45-39.65,39.3-39.72S6592.17,2128.83,6592.25,2151.71Z"/><path class="cls-4" d="M7213.51,2107.46c22.3.21,40.23,18.1,39.91,39.82s-18.86,39.6-40.75,39.44c-22.29-.17-39.41-17.76-39.22-40.29C7173.64,2123.63,7190.49,2107.24,7213.51,2107.46Z"/><path class="cls-11" d="M7988.8,1258.07c.06,21.76-18,39.46-40.21,39.5-23,0-39.67-16.46-39.71-39.31s16.57-39.47,39.52-39.51C7970.66,1218.71,7988.74,1236.31,7988.8,1258.07Z"/><path class="cls-11" d="M7637.87,1727.18c-22.78-.23-39.17-17.08-39-40.07.18-22.22,18.07-40.08,39.87-39.8s39.32,18.47,39.09,40.68C7677.62,1710.77,7660.65,1727.41,7637.87,1727.18Z"/><path class="cls-11" d="M7112.51,1601.91c.38,23-15.9,39.87-38.74,40.25s-39.82-15.86-40.23-38.76a39.84,39.84,0,0,1,38.74-40.94C7094,1561.94,7112.15,1579.7,7112.51,1601.91Z"/><path class="cls-4" d="M8058.35,1084c23-.07,39.76,16.4,39.87,39.2s-16.46,39.47-39.45,39.57c-22.25.08-40.45-17.47-40.58-39.15S8036.19,1084.05,8058.35,1084Z"/><path class="cls-4" d="M6721.87,2356.32c21.79-.64,40,17,40.4,39.17.45,23.1-15.6,40.05-38.39,40.54-23,.48-40-15.73-40.53-38.53C6682.87,2375.28,6700,2357,6721.87,2356.32Z"/><path class="cls-11" d="M7677.88,1267.62c.26,22.18-17.19,40.37-39.05,40.71s-39.73-17.43-39.95-39.67c-.22-23,16.06-39.79,38.91-40.06S7677.62,1244.82,7677.88,1267.62Z"/><path class="cls-8" d="M5986.9,689.25c-21.87-.34-39.2-18.49-38.93-40.77.27-22.86,17.09-39.21,40.07-38.94s39.12,17.05,38.89,40.09C6026.7,671.77,6008.69,689.6,5986.9,689.25Z"/><path class="cls-4" d="M7212.73,1967.68c22.26-.19,40.47,17.27,40.72,39s-17.76,39.55-40,39.7c-23.06.16-39.84-16.17-40-39S7189.81,1967.87,7212.73,1967.68Z"/><path class="cls-4" d="M7412.64,540c-.38,22.88-17.28,39.21-40.2,38.84-22.67-.38-39-17.48-38.69-40.4.36-22.17,18.51-40,40.24-39.48S7413,517.72,7412.64,540Z"/><path class="cls-9" d="M6287.07,585.13c-.48,22.81-17.53,39.1-40.43,38.62s-38.88-17.49-38.43-40.55c.43-22.16,18.65-39.9,40.36-39.28S6287.54,562.89,6287.07,585.13Z"/><path class="cls-12" d="M6293.46,2676.31c-21.93.53-40-17.09-40.37-39.34-.37-23,15.95-40,38.71-40.39s40.19,16.17,40.61,38.73A40.13,40.13,0,0,1,6293.46,2676.31Z"/><path class="cls-11" d="M6082.8,774.6c-.49,21.84-18.75,39-41.05,38.67-22.89-.37-39.32-17.31-38.95-40.16s17.36-38.92,40.44-38.59C6065.48,734.84,6083.29,752.88,6082.8,774.6Z"/><path class="cls-4" d="M7417.69,1518.59c-.38,22.85-17.21,39-40.31,38.61-22.87-.36-38.95-17.11-38.62-40.22.31-22.44,17.85-39.46,40.21-39S7418.06,1496,7417.69,1518.59Z"/><path class="cls-4" d="M7502.73,818.54c.15,22.86-16.35,39.55-39.22,39.67s-39.61-16.25-39.73-39.14,16.26-39.56,39.2-39.68S7502.59,795.65,7502.73,818.54Z"/><path class="cls-4" d="M7327.58,1923.07c-.38,22.91-17.1,38.86-40.29,38.46-22.95-.39-39-17.11-38.56-40.21.41-22.91,17.13-38.88,40.29-38.48C7311.9,1883.24,7328,1900,7327.58,1923.07Z"/><path class="cls-4" d="M7157.51,1517.05c.37,23-15.78,39.77-38.72,40.13s-39.86-15.79-40.2-38.63c-.33-22.58,16.49-40.23,38.71-40.62S7157.15,1494.64,7157.51,1517.05Z"/><path class="cls-8" d="M7412.63,1304.13c-.48,22.82-17.37,38.82-40.48,38.34-22.78-.47-39-17.52-38.48-40.43s17.51-38.84,40.56-38.32C7397.12,1264.23,7413.12,1281.07,7412.63,1304.13Z"/><path class="cls-16" d="M7373.92,678.55c-22.8.36-40.09-16.2-40.46-38.76s16.43-39.92,39-40.25c22.9-.34,39.92,16.07,40.26,38.81C7413.09,661.27,7396.76,678.19,7373.92,678.55Z"/><path class="cls-17" d="M5901.68,2436.2c21.3,1.13,36.57,18.74,35.14,40.53a36.77,36.77,0,0,1-38.63,34.77c-21.33-1.08-36.58-18.63-35.16-40.46C5864.36,2450.68,5881.6,2435.14,5901.68,2436.2Z"/><path class="cls-18" d="M7217.28,623.89c18.8-.42,36,16.18,36.17,34.93s-17,35.76-35.7,35.49c-18.06-.25-34-15.88-34.72-34C7182.3,641,7198,624.32,7217.28,623.89Z"/><path class="cls-19" d="M7468.48,704c-.17,18.93-17.25,35.73-35.88,35.28-19.16-.46-35.05-17.29-34.4-36.44.64-18.48,16.09-33.75,34.43-34C7451.47,668.5,7468.65,685.37,7468.48,704Z"/><path class="cls-19" d="M6962.49,2076.93c19.25-.28,35.72,15.81,35.78,35,0,18.76-17.06,35.5-35.9,35.11-18.13-.37-34.11-16.11-34.64-34.12C6927.16,2093.73,6943.13,2077.21,6962.49,2076.93Z"/><path class="cls-20" d="M7212.16,514.59c-19.4-.53-35-17.69-33.86-37.31a34.87,34.87,0,0,1,35.64-33c19.41.52,35.36,17.79,34.19,37C7247,499.74,7230.4,515.1,7212.16,514.59Z"/><path class="cls-20" d="M6633.28,2112.19c-18.49.27-34.23-14.92-34.93-33.7-.74-19.94,14.73-36.63,34.09-36.78a34.85,34.85,0,0,1,34.94,33.72C6668.13,2095.44,6652.85,2111.91,6633.28,2112.19Z"/><path class="cls-21" d="M7783.56,999.29c-.43,19.42-16.64,34.39-36.52,33.73-18.71-.63-33.84-15.84-34-34.21-.17-19.29,15.83-35,35.58-34.84S7784,979.88,7783.56,999.29Z"/><path class="cls-20" d="M6733,511.36c-1.4,19.79-18.05,33.72-38.43,32.16a34.51,34.51,0,0,1-31.81-36.42c1.3-19.65,18.16-33.8,38.32-32.16C6720,476.47,6734.33,492.88,6733,511.36Z"/><path class="cls-4" d="M7333.07,2066c.47,19.52-15.77,36.24-35.13,36.18-18.54-.07-34.07-15.47-34.53-34.25a34.67,34.67,0,0,1,34.82-35.92C7316.86,2032.13,7332.63,2047.51,7333.07,2066Z"/><path class="cls-20" d="M6963,2496.06a34.48,34.48,0,0,1-33.64,34.72c-20.18.63-36.5-14.59-36.66-34.18s15.94-35.08,36.12-34.7A34.39,34.39,0,0,1,6963,2496.06Z"/><path class="cls-22" d="M6732.46,1951.83c18.41-.32,34.19,15,34.86,33.83.71,19.95-14.83,36.6-34.23,36.66a35,35,0,0,1-34.93-33.79C6697.41,1968.54,6712.71,1952.18,6732.46,1951.83Z"/><path class="cls-22" d="M7412.64,1902.11a34.64,34.64,0,0,1,35.17,33.31c.89,20-14.3,36.64-33.88,37-18.62.38-34.29-14.58-35.11-33.52C7378,1918.8,7393,1902.47,7412.64,1902.11Z"/><path class="cls-14" d="M6828.68,2041.48c-20.05.36-36.11-15.19-35.9-34.77a34.59,34.59,0,0,1,34.38-34c20.15-.32,36.33,15.27,36.09,34.77C6863,2026.18,6847.83,2041.13,6828.68,2041.48Z"/><path class="cls-4" d="M6822.43,2266.13c-19.14-.17-34.07-14.86-34.4-33.81-.34-19.86,15.28-35.29,35.42-35,19.18.27,34.33,15,34.7,33.81C6858.54,2250.75,6842.66,2266.31,6822.43,2266.13Z"/><path class="cls-4" d="M6733.65,2052.16c20.17.51,34.65,16.35,33.6,36.75a34.13,34.13,0,0,1-35.33,32.8c-19.86-.54-34.7-16.71-33.73-36.74A34.3,34.3,0,0,1,6733.65,2052.16Z"/><path class="cls-4" d="M5777.82,2406.27a34.12,34.12,0,0,1-35.1-33.11c-.81-20,14.18-36,34.08-36.37s35.29,15.26,35,35.36C5811.53,2391.65,5797.24,2406,5777.82,2406.27Z"/><path class="cls-10" d="M6373.25,2516.32a34.55,34.55,0,0,1-35.1-33.3c-.8-20.07,14.34-36.44,34-36.79a34.72,34.72,0,0,1,35.06,33.49C6408.08,2499.75,6393,2516,6373.25,2516.32Z"/><path class="cls-4" d="M7253.35,1861.87c-20.17.12-35.32-15.22-34.9-35.33.39-19,15.18-33.5,34.37-33.62,20.48-.12,35.26,14.88,34.8,35.32C7287.19,1847.59,7272.75,1861.76,7253.35,1861.87Z"/><path class="cls-11" d="M7327.66,864c-.15,20.36-15.33,34.78-35.91,34.1-19.15-.62-33.35-15.46-33.21-34.67.15-20,15.79-34.85,36-34.15C7313.86,830,7327.8,844.56,7327.66,864Z"/><path class="cls-23" d="M7383.5,310.54c-.6,15.84-15,29.52-30.77,29.26s-29.82-14.34-29.88-30.14c-.06-16.6,15.42-31.35,31.89-30.38C7370.58,280.22,7384.09,294.9,7383.5,310.54Z"/><path class="cls-23" d="M7267.8,424.53c-16-.19-29.89-14-30-29.9s13.67-30,29.54-30.44c16.53-.48,31.63,14.62,31.11,31.11C7298,411.18,7283.75,424.72,7267.8,424.53Z"/><path class="cls-24" d="M8283.15,1283.35c-.09,16.83-13.35,30.26-29.71,30.07-15.9-.17-29.94-14.52-29.82-30.45.13-16.13,14.2-30.18,30.13-30.09C8270.2,1253,8283.23,1266.48,8283.15,1283.35Z"/><path class="cls-23" d="M7733.67,1183.26c0,16.33-13.55,29.51-30.33,29.47s-30.29-13.22-30.27-29.61c0-15.91,14.29-30,30.36-30S7733.66,1167.4,7733.67,1183.26Z"/><path class="cls-25" d="M7313,173.91c.43,16.16-13,30.6-28.92,31.1-16.12.5-29.92-12.9-30.32-29.45-.41-16.95,12.09-30.51,28.63-31.05C7298.2,144,7312.52,157.75,7313,173.91Z"/><path class="cls-26" d="M7497.67,269.23c.17,16.89-12.67,30.44-29,30.61-16,.17-30-13.62-30.22-29.79a30.28,30.28,0,0,1,29.36-30.53C7484,239.17,7497.49,252.55,7497.67,269.23Z"/><path class="cls-24" d="M7267,250.18c17-.55,30.68,11.78,31.38,28.31.68,15.89-12.9,30.35-29.08,31s-30.77-12.76-31.48-28.66S7250.51,250.72,7267,250.18Z"/><path class="cls-22" d="M6412.1,2291.77c-.06,16.49-13.58,30.22-29.66,30.12s-29.65-14.22-29.55-30.43,13.93-30.06,29.95-30.07C6399.11,2261.38,6412.15,2274.93,6412.1,2291.77Z"/><path class="cls-27" d="M7303.42,584.7c-.35,15.88-14.84,29.8-30.73,29.52a30.32,30.32,0,0,1-29.56-30.49c.21-16.58,13.63-29.37,30.57-29.12C7290.33,554.84,7303.78,568.47,7303.42,584.7Z"/><path class="cls-17" d="M7417.54,334.93c17-.35,30,12,30.3,28.95s-12.41,30.23-28.94,30.63a29.64,29.64,0,0,1-30.32-29.26C7388.19,348.3,7400.63,335.28,7417.54,334.93Z"/><path class="cls-20" d="M6567.16,2461.91c16.61-.3,30.48,12.72,30.83,28.92.34,16-13.34,29.94-29.66,30.2s-30.38-13.09-30.81-29.12C6537.08,2475.72,6550.43,2462.21,6567.16,2461.91Z"/><path class="cls-21" d="M7127.26,644.47c17-.37,30.13,12.11,30.49,28.93a29.68,29.68,0,0,1-29,30.63c-16.06.36-30.43-13.26-30.86-29.24A29.77,29.77,0,0,1,7127.26,644.47Z"/><path class="cls-19" d="M7253.35,1511.79c.65,15.8-13.09,30.41-29.15,31s-30.78-13.06-31.41-28.85c-.65-16.29,12.48-30,29.25-30.51C7239.08,1482.9,7252.67,1495.21,7253.35,1511.79Z"/><path class="cls-26" d="M7193.81,199.65c-16.68.31-29.82-12.5-30.11-29.37s12.29-30.39,28.82-30.7c15.87-.29,30.24,13.57,30.57,29.5A30.17,30.17,0,0,1,7193.81,199.65Z"/><path class="cls-28" d="M7163.64,578.84c-16.86.3-30-12.3-30.34-29-.32-16.88,12.13-29.74,29.15-30.1s29.83,11.82,30.12,28.9S7180.6,578.54,7163.64,578.84Z"/><path class="cls-17" d="M7497.66,522.05c-1.38,16.69-15.23,28-32.38,26.51-16.74-1.48-28.4-15.55-26.78-32.31,1.57-16.22,16.55-28.62,32.6-27C7487.64,491,7499.06,505.05,7497.66,522.05Z"/><path class="cls-20" d="M6447.38,394.75c-.15,16.26-14.05,30.11-30,29.89-16.14-.22-29.37-14.08-29.2-30.57s13.72-30.11,29.84-29.91C6434,364.37,6447.54,378.53,6447.38,394.75Z"/><path class="cls-14" d="M6487.58,2216.91c0,16.07-13.9,30-29.87,30-16.55,0-29.39-13.13-29.42-30.05s12.54-29.54,29.56-29.51C6474.69,2187.35,6487.62,2200.21,6487.58,2216.91Z"/><path class="cls-29" d="M7313.11,704.47c-1.42,15.49-10.29,24.54-26.1,23.94-14.61-.55-23.58-9.38-23.45-24.55.14-16.44,10.48-25.08,25.76-24.59C7303.55,679.72,7312.29,688.79,7313.11,704.47Z"/><path class="cls-30" d="M7123.58,445.54c.12-15.59,8-24.67,22.77-25.57,15.87-1,26.07,8,26.58,23.74s-9.61,25.58-25.1,25.43C7133.67,469,7124.47,460.44,7123.58,445.54Z"/><path class="cls-31" d="M7194.43,329.09c-15-.7-24.67-7.21-25.66-22.62-1-16.37,8.29-26,23.55-26.67,15.44-.65,25.54,9,25.62,24.84C7218,319.38,7208.74,327.43,7194.43,329.09Z"/><path class="cls-32" d="M6433.26,538.46c-1.93,12.65-8.62,20.81-20.51,20.67-11.53-.14-19.82-6.94-19.62-19.79.19-12.47,7.2-19.26,19.65-19.56C6425.81,519.46,6430.76,528.09,6433.26,538.46Z"/></g></g></svg>